<svg width="24" height="24" viewBox="0 0 24 24" fill="none" xmlns="http://www.w3.org/2000/svg">
<g clip-path="url(#clip0_1750_1177)">
<path d="M9.73242 21.3564C10.1659 22.1647 11.0188 22.7143 12 22.7143C12.9813 22.7143 13.8341 22.1647 14.2676 21.3564" stroke="black" stroke-width="1.71429" stroke-linecap="round" stroke-linejoin="round"/>
<path d="M7.307 3.22964C8.55167 1.98496 10.2398 1.28571 12.0001 1.28571C13.7603 1.28571 15.4484 1.98496 16.6931 3.22964C17.9378 4.47431 18.6371 6.16245 18.6371 7.9227C18.6371 8.9584 18.808 9.9316 19.0651 10.927C19.1371 11.1524 19.2165 11.365 19.3019 11.5656C19.6996 12.5012 20.7947 12.8205 21.6119 13.4254C22.8316 14.3284 22.5957 16.2604 21.5812 17.0105C21.5812 17.0105 19.9432 18.4286 12.0001 18.4286C4.05685 18.4286 2.41888 17.0105 2.41888 17.0105C1.4044 16.2604 1.16859 14.3284 2.38827 13.4254C3.20538 12.8205 4.30047 12.5013 4.6983 11.5657C5.09485 10.6331 5.36307 9.44017 5.36307 7.9227C5.36307 6.16245 6.06232 4.47431 7.307 3.22964Z" stroke="black" stroke-width="1.71429" stroke-linecap="round" stroke-linejoin="round"/>
</g>
<defs>
<clipPath id="clip0_1750_1177">
<rect width="24" height="24" fill="white"/>
</clipPath>
</defs>
</svg>
