<svg width="24" height="24" viewBox="0 0 24 24" fill="none" xmlns="http://www.w3.org/2000/svg">
<path d="M2.14288 1.33722C9.0986 10.2473 13.6133 14.7138 22.7143 21.9086" stroke="black" stroke-width="1.71429" stroke-linecap="round" stroke-linejoin="round"/>
<path d="M10.4732 21.3564C10.9066 22.1647 11.7595 22.7143 12.7408 22.7143C13.722 22.7143 14.5749 22.1647 15.0084 21.3564" stroke="black" stroke-width="1.71429" stroke-linecap="round" stroke-linejoin="round"/>
<path d="M7.04297 7.33318C7.27757 6.20059 7.83816 5.15115 8.66837 4.32094C9.78859 3.20074 11.3079 2.57141 12.8921 2.57141C14.4763 2.57141 15.9957 3.20074 17.1159 4.32094C18.2361 5.44116 18.8654 6.96048 18.8654 8.5447C18.8654 9.44815 19.0759 10.5841 19.2506 11.2486C19.2981 11.3967 19.3488 11.5388 19.4028 11.6749C19.7769 12.6202 20.9069 12.9232 21.6672 13.5981C22.6226 14.4461 22.392 16.0754 21.5151 16.7237C21.5151 16.7237 20.7494 17.3866 17.6455 17.7569" stroke="black" stroke-width="1.71429" stroke-linecap="round" stroke-linejoin="round"/>
<path d="M12.892 18C5.74312 18 4.26895 16.7238 4.26895 16.7238C3.39213 16.0755 3.16163 14.4461 4.11688 13.5982C4.8772 12.9232 6.00719 12.6203 6.38137 11.6749C6.43526 11.5388 6.48613 11.3968 6.53346 11.2487" stroke="black" stroke-width="1.71429" stroke-linecap="round" stroke-linejoin="round"/>
</svg>
