<svg width="24" height="24" viewBox="0 0 24 24" fill="none" xmlns="http://www.w3.org/2000/svg">
<path d="M1.72229 6.85714H3.18727C5.47999 6.85714 7.62099 8.00297 8.89275 9.91063L11.6786 14.0894C12.9504 15.997 15.0914 17.1429 17.3841 17.1429H22.5803" stroke="black" stroke-width="1.71429" stroke-linecap="round" stroke-linejoin="round"/>
<path d="M22.567 6.86537H17.4109C16.0771 6.86537 14.7955 7.38357 13.8365 8.31058L13.3715 8.76014" stroke="black" stroke-width="1.71429" stroke-linecap="round" stroke-linejoin="round"/>
<path d="M1.72229 17.1429H3.15708C4.65483 17.1429 6.11138 16.6525 7.30418 15.7467L7.55642 15.5551" stroke="black" stroke-width="1.71429" stroke-linecap="round" stroke-linejoin="round"/>
<path d="M19.703 20.0206C20.9656 18.9861 21.5966 18.3554 22.5808 17.1429C21.5966 15.9303 20.9656 15.2996 19.703 14.2651" stroke="black" stroke-width="1.71429" stroke-linecap="round" stroke-linejoin="round"/>
<path d="M19.703 9.73488C20.9656 8.70041 21.5966 8.06966 22.5808 6.85714C21.5966 5.64463 20.9656 5.01386 19.703 3.97939" stroke="black" stroke-width="1.71429" stroke-linecap="round" stroke-linejoin="round"/>
</svg>
