<svg width="24" height="24" viewBox="0 0 24 24" fill="none" xmlns="http://www.w3.org/2000/svg">
<path d="M21.422 14.357C20.7242 16.3348 19.4564 18.0617 17.7785 19.32C16.1008 20.5785 14.088 21.312 11.9939 21.4282C10.0582 21.4286 8.16923 20.833 6.58367 19.7225C4.99811 18.6122 3.79278 17.0405 3.13141 15.2213" stroke="black" stroke-width="1.71429" stroke-linecap="round" stroke-linejoin="round"/>
<path d="M2.56555 9.64299C3.8855 6.02885 7.93963 2.57184 11.9938 2.57184C13.9389 2.57731 15.8348 3.1843 17.4214 4.30958C19.0082 5.43487 20.2078 7.02338 20.8563 8.85732" stroke="black" stroke-width="1.71429" stroke-linecap="round" stroke-linejoin="round"/>
<path d="M22.5218 17.821C22.2207 16.3977 21.9802 15.6398 21.4241 14.3637C20.0609 14.6456 19.303 14.8862 17.9667 15.4614" stroke="black" stroke-width="1.71429" stroke-linecap="round" stroke-linejoin="round"/>
<path d="M1.73981 6.12488C1.9347 7.56663 2.11851 8.34027 2.57864 9.65401C3.9589 9.47382 4.7325 9.28986 6.10777 8.81518" stroke="black" stroke-width="1.71429" stroke-linecap="round" stroke-linejoin="round"/>
</svg>
