<svg width="24" height="24" viewBox="0 0 24 24" fill="none" xmlns="http://www.w3.org/2000/svg">
<path d="M3.83539 13.7438C3.83539 15.3585 4.31422 16.937 5.21134 18.2796C6.10846 19.6222 7.38357 20.6688 8.87541 21.2866C10.3672 21.9046 12.0088 22.0663 13.5926 21.7512C15.1763 21.4363 16.6311 20.6587 17.7729 19.5168C18.9148 18.3751 19.6922 16.9203 20.0073 15.3366C20.3224 13.7528 20.1607 12.1112 19.5427 10.6194C18.9247 9.12754 17.8783 7.85243 16.5357 6.95531C15.193 6.05821 13.6145 5.57938 11.9998 5.57938H3.83863" stroke="black" stroke-width="1.71429" stroke-linecap="round" stroke-linejoin="round"/>
<path d="M7.32339 2.0918C5.99082 3.18359 5.23889 3.90433 4.27908 5.0428C4.01773 5.3528 4.01773 5.80593 4.27908 6.11593C5.23889 7.2544 5.99082 7.97514 7.32339 9.06692" stroke="black" stroke-width="1.71429" stroke-linecap="round" stroke-linejoin="round"/>
</svg>
