<svg width="24" height="24" viewBox="0 0 24 24" fill="none" xmlns="http://www.w3.org/2000/svg">
<path d="M20.1643 13.7438C20.1643 15.3585 19.6853 16.937 18.7883 18.2796C17.8912 19.6222 16.6161 20.6688 15.1242 21.2866C13.6324 21.9046 11.9908 22.0663 10.407 21.7512C8.82332 21.4363 7.36856 20.6587 6.22674 19.5168C5.08494 18.3751 4.30736 16.9203 3.99233 15.3366C3.67731 13.7528 3.83898 12.1112 4.45693 10.6194C5.07488 9.12754 6.12133 7.85243 7.46396 6.95531C8.80659 6.05821 10.3851 5.57938 11.9998 5.57938H20.1611" stroke="black" stroke-width="1.71429" stroke-linecap="round" stroke-linejoin="round"/>
<path d="M16.6766 2.0918C18.0093 3.18359 18.7612 3.90433 19.721 5.0428C19.9822 5.3528 19.9822 5.80593 19.721 6.11593C18.7612 7.2544 18.0093 7.97514 16.6766 9.06692" stroke="black" stroke-width="1.71429" stroke-linecap="round" stroke-linejoin="round"/>
</svg>
