<svg width="24" height="24" viewBox="0 0 24 24" fill="none" xmlns="http://www.w3.org/2000/svg">
<g clip-path="url(#clip0_165_975)">
<path d="M8.14874 1.28571V5.63859" stroke="black" stroke-width="1.71429" stroke-linecap="round"/>
<path d="M15.8396 1.28571V5.63859" stroke="black" stroke-width="1.71429" stroke-linecap="round"/>
<path d="M1.87172 18.0428C2.1483 20.5104 4.15391 22.4695 6.634 22.589C8.3482 22.6714 10.0993 22.7145 11.9999 22.7145C13.9004 22.7145 15.6515 22.6714 17.3657 22.589C19.8458 22.4695 21.8513 20.5104 22.128 18.0428C22.3142 16.3811 22.4671 14.6775 22.4671 12.942C22.4671 11.2066 22.3142 9.50298 22.128 7.84131C21.8513 5.37378 19.8458 3.41463 17.3657 3.29518C15.6515 3.21262 13.9004 3.16971 11.9999 3.16971C10.0993 3.16971 8.3482 3.21262 6.634 3.29518C4.15391 3.41463 2.1483 5.37378 1.87172 7.84131C1.68546 9.50298 1.53265 11.2066 1.53265 12.942C1.53265 14.6775 1.68546 16.3811 1.87172 18.0428Z" stroke="black" stroke-width="1.71429"/>
<path d="M2.03363 9.42856H22.0694" stroke="black" stroke-width="1.71429"/>
</g>
<defs>
<clipPath id="clip0_165_975">
<rect width="24" height="24" fill="white"/>
</clipPath>
</defs>
</svg>
