<svg width="24" height="24" viewBox="0 0 24 24" fill="none" xmlns="http://www.w3.org/2000/svg">
<g clip-path="url(#clip0_1777_1003)">
<path d="M8.14868 1.28571V5.63859" stroke="black" stroke-width="1.71429" stroke-linecap="round"/>
<path d="M15.8396 1.28571V5.63859" stroke="black" stroke-width="1.71429" stroke-linecap="round"/>
<path d="M1.87166 18.0427C2.14824 20.51 4.15385 22.4693 6.63394 22.5888C8.34814 22.6712 10.0993 22.7141 11.9998 22.7141C13.9003 22.7141 15.6514 22.6712 17.3657 22.5888C19.8457 22.4693 21.8513 20.51 22.1279 18.0427C22.3141 16.3809 22.467 14.6773 22.467 12.9418C22.467 11.2064 22.3141 9.50277 22.1279 7.84108C21.8513 5.37357 19.8457 3.4144 17.3657 3.29496C15.6514 3.2124 13.9003 3.16949 11.9998 3.16949C10.0993 3.16949 8.34814 3.2124 6.63394 3.29496C4.15385 3.4144 2.14824 5.37357 1.87166 7.84108C1.6854 9.50277 1.53259 11.2064 1.53259 12.9418C1.53259 14.6773 1.6854 16.3809 1.87166 18.0427Z" stroke="black" stroke-width="1.71429"/>
<path d="M6.85718 10.3705H7.71432" stroke="black" stroke-width="1.71429" stroke-linecap="round" stroke-linejoin="round"/>
<path d="M6.85718 15.5133H7.71432" stroke="black" stroke-width="1.71429" stroke-linecap="round" stroke-linejoin="round"/>
<path d="M11.5714 10.3705H12.4286" stroke="black" stroke-width="1.71429" stroke-linecap="round" stroke-linejoin="round"/>
<path d="M16.2858 10.3705H17.1429" stroke="black" stroke-width="1.71429" stroke-linecap="round" stroke-linejoin="round"/>
<path d="M11.5714 15.5133H12.4286" stroke="black" stroke-width="1.71429" stroke-linecap="round" stroke-linejoin="round"/>
</g>
<defs>
<clipPath id="clip0_1777_1003">
<rect width="24" height="24" fill="white"/>
</clipPath>
</defs>
</svg>
