<svg width="24" height="24" viewBox="0 0 24 24" fill="none" xmlns="http://www.w3.org/2000/svg">
<path d="M2.42932 5.82008C2.30953 7.44183 2.22272 9.41269 2.22272 10.9899C2.22272 13.1643 2.47575 15.8671 2.68686 17.7437C2.84931 19.1877 3.65349 20.4849 4.97972 21.0785C6.61028 21.8083 9.10683 22.6425 12 22.6425C14.8932 22.6425 17.3897 21.8083 19.0204 21.0785C20.3465 20.4849 21.1507 19.1877 21.3132 17.7437C21.5243 15.8671 21.7773 13.1643 21.7773 10.9899C21.7773 9.31368 21.6792 7.66337 21.5477 6.04591" stroke="black" stroke-width="1.71429" stroke-linejoin="round"/>
<path d="M11.9994 9.84031C18.131 9.84031 21.58 8.31341 21.58 5.59893C21.58 2.88444 18.131 1.35754 11.9994 1.35754C5.86787 1.35754 2.41888 2.88444 2.41888 5.59893C2.41888 8.31341 5.86787 9.84031 11.9994 9.84031Z" stroke="black" stroke-width="1.71429" stroke-linecap="round" stroke-linejoin="round"/>
<path d="M2.30359 13.7143C8.38445 16.806 15.6229 16.8202 21.6965 13.7142" stroke="black" stroke-width="1.71429" stroke-linecap="round" stroke-linejoin="round"/>
</svg>
