<svg width="24" height="24" viewBox="0 0 24 24" fill="none" xmlns="http://www.w3.org/2000/svg">
<path d="M10.0625 15.9491C9.93493 16.003 9.80982 16.0618 9.68745 16.1256C8.87898 16.5469 8.87291 17.6169 9.49149 18.2865L10.7902 19.6923C11.4689 20.4271 12.63 20.4271 13.3087 19.6923L14.6074 18.2865C15.226 17.6169 15.2199 16.5469 14.4115 16.1256C14.2891 16.0618 14.164 16.003 14.0364 15.9491C13.4076 15.6838 12.732 15.5471 12.0494 15.5471C11.3669 15.5471 10.6913 15.6838 10.0625 15.9491Z" stroke="black" stroke-width="1.71429" stroke-linecap="round" stroke-linejoin="round"/>
<path d="M4.83972 12.3895C5.77913 11.4446 6.89608 10.6947 8.12632 10.183C9.35654 9.67136 10.6758 9.40796 12.0082 9.40796C13.3406 9.40796 14.6599 9.67136 15.8901 10.183C17.1203 10.6947 18.2372 11.4446 19.1767 12.3895" stroke="black" stroke-width="1.71429" stroke-linecap="round" stroke-linejoin="round"/>
<path d="M1.28571 7.81014C2.69247 6.40266 4.36275 5.28613 6.20115 4.52437C8.03955 3.76259 10.01 3.37051 12 3.37051C13.99 3.37051 15.9604 3.76259 17.7989 4.52437C19.6373 5.28613 21.3075 6.40266 22.7143 7.81014" stroke="black" stroke-width="1.71429" stroke-linecap="round" stroke-linejoin="round"/>
</svg>
