<svg width="24" height="24" viewBox="0 0 24 24" fill="none" xmlns="http://www.w3.org/2000/svg">
<path d="M2.83623 17.6033C3.07013 20.0736 5.02702 22.0954 7.49042 22.3934C8.96179 22.5715 10.4676 22.7143 12 22.7143C13.5323 22.7143 15.0381 22.5715 16.5095 22.3934C18.9728 22.0954 20.9299 20.0736 21.1637 17.6033C21.3363 15.7801 21.482 13.9083 21.482 12C21.482 10.0917 21.3363 8.21984 21.1637 6.39663C20.9299 3.92632 18.9728 1.90456 16.5095 1.60655C15.0381 1.42855 13.5323 1.28571 12 1.28571C10.4676 1.28571 8.96179 1.42855 7.49042 1.60655C5.02702 1.90456 3.07013 3.92632 2.83623 6.39663C2.66361 8.21984 2.51782 10.0917 2.51782 12C2.51782 13.9083 2.66361 15.7801 2.83623 17.6033Z" stroke="black" stroke-width="1.71429"/>
<path d="M8.41028 6.88873H15.5898" stroke="black" stroke-width="1.71429" stroke-linecap="round" stroke-linejoin="round"/>
<path d="M8.41028 12H12" stroke="black" stroke-width="1.71429" stroke-linecap="round" stroke-linejoin="round"/>
<path d="M7.49048 22.3934C5.02708 22.0954 3.07021 20.0736 2.83629 17.6033C2.80166 17.2375 2.7681 16.8697 2.73657 16.5H21.2635C21.232 16.8697 21.1984 17.2375 21.1638 17.6033C20.9299 20.0736 18.9729 22.0954 16.5096 22.3934C15.0382 22.5715 13.5324 22.7143 12 22.7143C10.4677 22.7143 8.96185 22.5715 7.49048 22.3934Z" stroke="black" stroke-width="1.71429" stroke-linejoin="round"/>
</svg>
