<svg width="24" height="24" viewBox="0 0 24 24" fill="none" xmlns="http://www.w3.org/2000/svg">
<path d="M1.88808 14.898C2.01859 15.7709 2.77495 16.4221 3.65709 16.3957C6.36026 16.3148 9.11407 16.2108 12.0001 16.2108C14.8748 16.2108 17.6291 16.276 20.3166 16.376C21.2099 16.4092 21.9837 15.7553 22.1161 14.8713C22.3927 13.0237 22.7143 11.0987 22.7143 9.12085C22.7143 7.14992 22.395 5.23148 22.119 3.38979C21.9853 2.49783 21.1987 1.84197 20.2977 1.87983C17.6407 1.99141 14.8612 2.03096 12.0001 2.03096C9.12727 2.03096 6.34747 1.95311 3.67536 1.85965C2.78553 1.82852 2.0171 2.48164 1.8853 3.3622C1.6084 5.21233 1.28577 7.14008 1.28577 9.12085C1.28577 11.1083 1.61056 13.0423 1.88808 14.898Z" stroke="black" stroke-width="1.71429"/>
<path d="M7.72852 21.4502H16.2713" stroke="black" stroke-width="1.71429" stroke-linecap="round"/>
<path d="M12 16.2154V21.4502" stroke="black" stroke-width="1.71429" stroke-linecap="round"/>
</svg>
