<svg width="24" height="24" viewBox="0 0 24 24" fill="none" xmlns="http://www.w3.org/2000/svg">
<path d="M8.15522 6.46224C8.1931 5.32247 8.23469 4.21135 8.27251 3.28761C8.30536 2.48512 8.89315 1.80588 9.67747 1.63289C10.4305 1.46679 11.2068 1.31125 12.0001 1.31125C12.7934 1.31125 13.5697 1.46679 14.3228 1.63289C15.1071 1.80588 15.6949 2.4851 15.7278 3.28759C15.7656 4.2131 15.8073 5.32667 15.8452 6.46871M8.15503 17.5322C8.19297 18.6741 8.23462 19.7873 8.27251 20.7125C8.30536 21.5151 8.89315 22.1943 9.67747 22.3673C10.4305 22.5334 11.2068 22.6889 12.0001 22.6889C12.7934 22.6889 13.5697 22.5334 14.3228 22.3673C15.1071 22.1943 15.6949 21.5151 15.7278 20.7125C15.7657 19.7851 15.8075 18.6684 15.8455 17.5238" stroke="black" stroke-width="1.71429"/>
<path d="M6.46819 15.9442C6.56049 16.767 7.21598 17.4219 8.03843 17.5171C9.31516 17.6647 10.6405 17.8265 11.9999 17.8265C13.3592 17.8265 14.6846 17.6647 15.9613 17.5171C16.7838 17.4219 17.4392 16.767 17.5316 15.9442C17.6742 14.6729 17.8265 13.3533 17.8265 11.9999C17.8265 10.6465 17.6742 9.32688 17.5316 8.05562C17.4392 7.23285 16.7838 6.57782 15.9613 6.48275C14.6846 6.33515 13.3592 6.17325 11.9999 6.17325C10.6405 6.17325 9.31516 6.33515 8.03843 6.48275C7.21598 6.57782 6.56049 7.23285 6.46819 8.05562C6.32558 9.32688 6.17322 10.6465 6.17322 11.9999C6.17322 13.3533 6.32558 14.6729 6.46819 15.9442Z" stroke="black" stroke-width="1.71429"/>
</svg>
