<svg width="24" height="24" viewBox="0 0 24 24" fill="none" xmlns="http://www.w3.org/2000/svg">
<path d="M20.0662 8.50917C20.4948 10.5894 20.7569 12.8302 20.7569 15.1331C20.7569 16.9929 20.567 18.7913 20.2834 20.527C20.1634 21.2618 19.5657 21.8215 18.8258 21.9036C16.5311 22.1582 14.1557 22.3258 11.6909 22.3258C9.24845 22.3258 6.87643 22.0594 4.61007 21.8613C3.84495 21.7944 3.20439 21.2379 3.07755 20.4806C2.78901 18.7575 2.625 16.9769 2.625 15.1331C2.625 12.8302 2.86378 10.5807 3.31567 8.50917" stroke="black" stroke-width="1.71429"/>
<path d="M9.21851 13.9039H14.1636" stroke="black" stroke-width="1.71429" stroke-linecap="round" stroke-linejoin="round"/>
<path d="M1.6693 7.9404C1.89268 8.54881 2.51093 8.89481 3.15897 8.8837C8.94569 8.7846 14.8106 8.886 20.8259 8.9022C21.4818 8.90396 22.0963 8.53562 22.3204 7.91914C22.5618 7.25482 22.7143 6.57104 22.7143 5.86813C22.7143 5.1319 22.5637 4.40952 22.3007 3.71628C22.0867 3.15255 21.5294 2.8129 20.9272 2.78496C18.0494 2.65145 15.0924 2.57143 12.0001 2.57143C8.90251 2.57143 5.88722 2.64668 3.04238 2.78412C2.45661 2.81242 1.91152 3.13582 1.69962 3.68266C1.42731 4.38535 1.28577 5.1206 1.28577 5.86813C1.28577 6.57884 1.42286 7.26912 1.6693 7.9404Z" stroke="black" stroke-width="1.71429"/>
</svg>
