<svg width="24" height="24" viewBox="0 0 24 24" fill="none" xmlns="http://www.w3.org/2000/svg">
<path d="M13.8268 1.36356V6.85851C13.8268 7.80529 14.5932 8.53525 15.5396 8.5626C17.9203 8.63136 21.4227 9.27329 21.4227 13.5495" stroke="black" stroke-width="1.71429" stroke-linejoin="round"/>
<path d="M21.2122 19.0695C21.354 16.8098 21.4286 14.4681 21.4286 12.0686C21.4286 11.4443 21.4236 10.8238 21.4135 10.2077C21.3919 8.87093 20.9669 7.56448 20.1466 6.50885C18.905 4.91128 17.778 3.78257 16.075 2.46825C15.5311 2.04842 14.8635 1.82064 14.1766 1.80563C13.4877 1.79057 12.7684 1.78293 12 1.78293C9.67378 1.78293 7.79733 1.85299 5.85547 1.9865C4.20351 2.10009 2.89152 3.41517 2.78779 5.06777C2.64597 7.32749 2.57141 9.66916 2.57141 12.0686C2.57141 14.4681 2.64597 16.8098 2.78779 19.0695C2.89152 20.7221 4.20351 22.0371 5.85547 22.1508C7.79733 22.2843 9.67378 22.3543 12 22.3543C14.3262 22.3543 16.2026 22.2843 18.1445 22.1508C19.7964 22.0371 21.1085 20.7221 21.2122 19.0695Z" stroke="black" stroke-width="1.71429"/>
</svg>
