<svg width="24" height="24" viewBox="0 0 24 24" fill="none" xmlns="http://www.w3.org/2000/svg">
<path d="M12 10.3735C13.6457 10.3735 14.5714 9.44779 14.5714 7.80207C14.5714 6.15636 13.6457 5.23064 12 5.23064C10.3543 5.23064 9.42859 6.15636 9.42859 7.80207C9.42859 9.44779 10.3543 10.3735 12 10.3735Z" stroke="black" stroke-width="1.71429" stroke-linecap="round" stroke-linejoin="round"/>
<path d="M7.74817 13.629C8.0217 12.4219 9.09349 10.8021 11.97 10.8021C14.8465 10.8021 15.9183 12.4219 16.1918 13.629" stroke="black" stroke-width="1.71429" stroke-linecap="round" stroke-linejoin="round"/>
<path d="M20.6031 17.6078C20.8085 12.9468 20.7534 8.43979 20.4382 3.69641C20.3833 2.87192 19.7401 2.20808 18.9173 2.13307C14.1749 1.7008 9.82541 1.7008 5.08311 2.13307C4.26022 2.20808 3.61693 2.87192 3.56213 3.69641C3.19951 9.15269 3.18127 14.2962 3.50741 19.721C3.52572 19.4306 3.54507 19.1393 3.56545 18.8472C3.62302 18.0221 4.27009 17.3606 5.09405 17.2884C10.1227 16.8482 14.7275 16.8482 19.7561 17.2884C20.0722 17.3162 20.3624 17.4305 20.6031 17.6078Z" stroke="black" stroke-width="1.71429" stroke-linejoin="round"/>
<path d="M20.5855 17.5949C20.3483 17.425 20.0645 17.3155 19.756 17.2884C14.7274 16.8482 10.1226 16.8482 5.094 17.2884C4.27005 17.3606 3.62296 18.0221 3.56539 18.8472C3.54513 19.1376 3.5259 19.427 3.50769 19.7157C3.5259 20.0043 3.54513 20.2937 3.56539 20.5841C3.62296 21.4092 4.27005 22.0707 5.094 22.1429C10.1226 22.5831 14.7274 22.5831 19.756 22.1429C20.0621 22.1162 20.3438 22.008 20.58 21.8403C20.0824 21.275 19.7807 20.533 19.7807 19.7208C19.7807 18.9055 20.0846 18.1611 20.5855 17.5949Z" stroke="black" stroke-width="1.71429" stroke-linejoin="round"/>
</svg>
