<svg width="24" height="24" viewBox="0 0 24 24" fill="none" xmlns="http://www.w3.org/2000/svg">
<g clip-path="url(#clip0_1750_1174)">
<path d="M14.4918 7.56166C14.5934 8.51155 15.3574 9.27554 16.3068 9.38136C17.012 9.45996 17.736 9.52747 18.4742 9.52747C19.2125 9.52747 19.9365 9.45996 20.6417 9.38136C21.5911 9.27554 22.3552 8.51155 22.4568 7.56166C22.5317 6.86045 22.5952 6.14054 22.5952 5.4066C22.5952 4.67264 22.5317 3.95273 22.4568 3.25152C22.3552 2.30163 21.5911 1.53765 20.6417 1.43183C19.9365 1.35323 19.2125 1.28571 18.4744 1.28571C17.736 1.28571 17.012 1.35323 16.3068 1.43183C15.3574 1.53765 14.5934 2.30163 14.4918 3.25152C14.4168 3.95273 14.3534 4.67264 14.3534 5.4066C14.3534 6.14054 14.4168 6.86045 14.4918 7.56166Z" stroke="black" stroke-width="1.71429"/>
<path d="M1.54334 7.56166C1.64497 8.51155 2.40896 9.27554 3.35836 9.38136C4.06357 9.45996 4.78763 9.52747 5.52585 9.52747C6.26408 9.52747 6.98814 9.45996 7.69333 9.38136C8.64275 9.27554 9.40672 8.51155 9.50836 7.56166C9.58338 6.86045 9.64672 6.14054 9.64672 5.4066C9.64672 4.67264 9.58338 3.95273 9.50836 3.25152C9.40672 2.30163 8.64275 1.53765 7.69333 1.43183C6.98814 1.35323 6.26408 1.28571 5.52585 1.28571C4.78763 1.28571 4.06357 1.35323 3.35836 1.43183C2.40896 1.53765 1.64497 2.30163 1.54334 3.25152C1.46832 3.95273 1.40497 4.67264 1.40497 5.4066C1.40497 6.14054 1.46832 6.86045 1.54334 7.56166Z" stroke="black" stroke-width="1.71429"/>
<path d="M1.54334 20.7485C1.64497 21.6984 2.40896 22.4623 3.35836 22.5682C4.06357 22.6467 4.78763 22.7143 5.52585 22.7143C6.26408 22.7143 6.98814 22.6467 7.69333 22.5682C8.64275 22.4623 9.40672 21.6984 9.50836 20.7485C9.58338 20.0474 9.64672 19.3274 9.64672 18.5935C9.64672 17.8594 9.58338 17.1396 9.50836 16.4384C9.40672 15.4885 8.64275 14.7245 7.69333 14.6187C6.98814 14.5401 6.26408 14.4725 5.52585 14.4725C4.78763 14.4725 4.06357 14.5401 3.35836 14.6187C2.40896 14.7245 1.64497 15.4885 1.54334 16.4384C1.46832 17.1396 1.40497 17.8594 1.40497 18.5935C1.40497 19.3274 1.46832 20.0474 1.54334 20.7485Z" stroke="black" stroke-width="1.71429"/>
<path d="M14.4918 20.7485C14.5934 21.6984 15.3574 22.4623 16.3068 22.5682C17.012 22.6467 17.736 22.7143 18.4742 22.7143C19.2125 22.7143 19.9365 22.6467 20.6417 22.5682C21.5911 22.4623 22.3552 21.6984 22.4568 20.7485C22.5317 20.0474 22.5952 19.3274 22.5952 18.5935C22.5952 17.8594 22.5317 17.1396 22.4568 16.4384C22.3552 15.4885 21.5911 14.7245 20.6417 14.6187C19.9365 14.5401 19.2125 14.4725 18.4744 14.4725C17.736 14.4725 17.012 14.5401 16.3068 14.6187C15.3574 14.7245 14.5934 15.4885 14.4918 16.4384C14.4168 17.1396 14.3534 17.8594 14.3534 18.5935C14.3534 19.3274 14.4168 20.0474 14.4918 20.7485Z" stroke="black" stroke-width="1.71429"/>
</g>
<defs>
<clipPath id="clip0_1750_1174">
<rect width="24" height="24" fill="white"/>
</clipPath>
</defs>
</svg>
