<svg width="24" height="24" viewBox="0 0 24 24" fill="none" xmlns="http://www.w3.org/2000/svg">
<g clip-path="url(#clip0_1566_953)">
<path d="M9.2399 4.13171C7.74967 4.19882 6.28798 4.36199 4.86273 4.52685C3.21783 4.71712 1.90236 6.03196 1.71854 7.67757C1.5119 9.52742 1.3125 11.4388 1.3125 13.3943C1.3125 15.3498 1.5119 17.2611 1.71854 19.111C1.90236 20.7566 3.21783 22.0714 4.86271 22.2617C6.72137 22.4767 8.64197 22.6889 10.607 22.6889C12.5721 22.6889 14.4927 22.4767 16.3514 22.2617C17.9962 22.0714 19.3118 20.7567 19.4955 19.111C19.6442 17.7804 19.789 16.4179 19.8586 15.03" stroke="black" stroke-width="1.71429" stroke-linecap="round"/>
<path d="M17.3288 2.23317L11.0118 9.40087L10.1464 13.4711C10.0072 14.1261 10.6899 14.7458 11.3292 14.5448L15.3797 13.2714L21.9044 6.40583C22.9882 5.26553 22.7991 3.35832 21.4873 2.19808C20.2063 1.065 18.3445 1.08072 17.3288 2.23317Z" stroke="black" stroke-width="1.71429" stroke-linecap="round" stroke-linejoin="round"/>
</g>
<defs>
<clipPath id="clip0_1566_953">
<rect width="24" height="24" fill="white"/>
</clipPath>
</defs>
</svg>
