<svg width="24" height="24" viewBox="0 0 24 24" fill="none" xmlns="http://www.w3.org/2000/svg">
<path d="M22.7143 6.85673V8.85106C21.497 9.37735 20.6451 10.589 20.6451 11.9996C20.6451 13.4102 21.497 14.6218 22.7143 15.1481V17.1424C22.7143 19.0359 21.1793 20.5711 19.2857 20.5711H4.71428C2.82073 20.5711 1.28571 19.0359 1.28571 17.1424V15.1482C2.50316 14.6219 3.35511 13.4103 3.35511 11.9996C3.35511 10.5889 2.50316 9.37721 1.28571 8.85098V6.85673C1.28571 4.96318 2.82073 3.42816 4.71428 3.42816H19.2857C21.1793 3.42816 22.7143 4.96318 22.7143 6.85673Z" stroke="black" stroke-width="1.71429" stroke-linejoin="round"/>
<path d="M15.4286 11.5714V12.4286" stroke="black" stroke-width="1.71429" stroke-linecap="round"/>
<path d="M15.4286 6.85712V7.71426" stroke="black" stroke-width="1.71429" stroke-linecap="round"/>
<path d="M15.4286 16.2857V17.1428" stroke="black" stroke-width="1.71429" stroke-linecap="round"/>
</svg>
