<svg width="24" height="24" viewBox="0 0 24 24" fill="none" xmlns="http://www.w3.org/2000/svg">
<path d="M9.77947 5.26495C7.2834 5.90747 5.35542 6.66501 2.86159 7.99063C2.19844 8.34314 1.8575 9.09852 2.02338 9.831C3.00043 14.1456 4.01135 16.9105 6.06311 20.8292C6.4097 21.4911 7.15391 21.8451 7.88474 21.6896C11.504 20.9194 13.7555 20.0405 17.203 18.1049C17.3295 18.0339 17.3954 17.8872 17.3628 17.7457" stroke="black" stroke-width="1.71429" stroke-linejoin="round"/>
<path d="M10.1716 3.66665C10.3337 2.93333 10.9644 2.39523 11.7146 2.35894C15.0634 2.19694 17.3498 2.41939 20.6129 3.14904C21.3611 3.31632 21.8976 3.97413 21.9175 4.74045C22.0324 9.16227 21.7752 12.0689 20.8901 16.3535C20.7371 17.095 20.1059 17.6446 19.3499 17.6854C15.9913 17.8673 13.6993 17.6619 10.4206 16.8924C9.69316 16.7217 9.17077 16.0843 9.13931 15.3377C8.95312 10.9183 9.21685 7.98627 10.1716 3.66665Z" stroke="black" stroke-width="1.71429" stroke-linejoin="round"/>
</svg>
