<svg width="24" height="24" viewBox="0 0 24 24" fill="none" xmlns="http://www.w3.org/2000/svg">
<path d="M10.0811 21.9276C12.2067 21.9276 14.3455 21.8467 16.4356 21.7181C17.3738 21.6603 18.3022 21.593 19.2152 21.5187C19.3481 21.5081 19.4806 21.4971 19.6128 21.486C21.2059 21.3528 22.4614 20.0781 22.5488 18.4817C22.7091 15.5618 22.7705 12.4314 22.7859 9.37054C22.7907 8.42378 22.0226 7.65627 21.0758 7.65627H20.0225" stroke="black" stroke-width="1.71429" stroke-linecap="round" stroke-linejoin="round"/>
<path d="M1.58454 18.3041C1.73604 19.9488 3.01992 21.2899 4.65571 21.5177C6.1841 21.7305 7.75887 21.9276 9.36761 21.9276C11.4745 21.9276 13.523 21.8866 15.4854 21.7342C16.3088 21.6703 16.9485 21.005 17.0185 20.1821C17.2383 17.5977 17.5253 14.6749 17.5253 12C17.5253 9.33619 17.2406 6.74913 17.0212 4.27718C16.9481 3.45463 16.3085 2.79196 15.4904 2.67993C13.5265 2.41101 11.4762 2.07238 9.36761 2.07238C7.259 2.07238 5.20875 2.41101 3.24483 2.67993C2.42669 2.79196 1.78707 3.45463 1.71406 4.27718C1.4946 6.74913 1.20996 9.33619 1.20996 12C1.20996 14.1586 1.39687 16.2668 1.58454 18.3041Z" stroke="black" stroke-width="1.71429"/>
<path d="M5.90025 11.0747C5.95912 11.4826 6.29282 11.7999 6.70332 11.8361C7.58164 11.9136 8.49731 12.0079 9.43843 12.0079C10.3795 12.0079 11.2952 11.9136 12.1735 11.8361C12.584 11.7999 12.9177 11.4826 12.9766 11.0747C13.068 10.4419 13.1657 9.78502 13.1657 9.11127C13.1657 8.43754 13.068 7.78063 12.9766 7.14783C12.9177 6.73997 12.584 6.42266 12.1735 6.38643C11.2952 6.30893 10.3795 6.21465 9.43843 6.21465C8.49731 6.21465 7.58164 6.30893 6.70332 6.38643C6.29282 6.42266 5.95912 6.73997 5.90025 7.14783C5.80891 7.78063 5.71118 8.43754 5.71118 9.11127C5.71118 9.78502 5.80891 10.4419 5.90025 11.0747Z" stroke="black" stroke-width="1.71429"/>
<path d="M12.5374 16.2338H6.25391" stroke="black" stroke-width="1.71429" stroke-linecap="round" stroke-linejoin="round"/>
</svg>
