<svg width="24" height="24" viewBox="0 0 24 24" fill="none" xmlns="http://www.w3.org/2000/svg">
<g clip-path="url(#clip0_165_967)">
<path d="M1.64548 17.6032C1.90971 20.0729 3.89605 22.0593 6.36455 22.3344C8.19807 22.5388 10.0806 22.7143 12 22.7143C13.9194 22.7143 15.8019 22.5388 17.6354 22.3344C20.1039 22.0593 22.0903 20.0729 22.3544 17.6032C22.5495 15.78 22.7143 13.9083 22.7143 12C22.7143 10.0917 22.5495 8.21997 22.3544 6.39681C22.0903 3.92713 20.1039 1.94077 17.6354 1.66562C15.8019 1.46125 13.9194 1.28572 12 1.28572C10.0806 1.28572 8.19807 1.46125 6.36455 1.66562C3.89605 1.94077 1.90971 3.92713 1.64548 6.39681C1.45042 8.21997 1.28571 10.0917 1.28571 12C1.28571 13.9083 1.45042 15.78 1.64548 17.6032Z" stroke="black" stroke-width="1.71429"/>
</g>
<defs>
<clipPath id="clip0_165_967">
<rect width="24" height="24" fill="white"/>
</clipPath>
</defs>
</svg>
