<svg width="24" height="24" viewBox="0 0 24 24" fill="none" xmlns="http://www.w3.org/2000/svg">
<g clip-path="url(#clip0_1750_1139)">
<path d="M2.02683 20.3777C2.11519 21.2009 2.76831 21.8535 3.59134 21.9435C6.28094 22.2375 9.09813 22.6416 12 22.6416C14.9019 22.6416 17.7192 22.2375 20.4087 21.9435C21.2318 21.8535 21.8849 21.2009 21.9732 20.3777C22.2608 17.6979 22.6416 14.8911 22.6416 12C22.6416 9.10881 22.2608 6.30201 21.9732 3.62224C21.8849 2.79904 21.2318 2.14647 20.4087 2.05648C17.7192 1.76245 14.9019 1.35846 12 1.35846C9.09813 1.35846 6.28094 1.76243 3.59134 2.05648C2.76831 2.14647 2.11519 2.79904 2.02683 3.62224C1.73919 6.30201 1.35852 9.10881 1.35852 12C1.35852 14.8911 1.73919 17.6979 2.02683 20.3777Z" stroke="black" stroke-width="1.71429"/>
<path d="M22.37 7.26323C22.2936 6.49479 22.2082 5.73459 22.1238 4.98352C22.0726 4.52631 22.0215 4.07248 21.9732 3.62224C21.8849 2.79904 21.2317 2.14647 20.4087 2.05648C19.9059 2.00152 19.3986 1.94271 18.8873 1.88343C16.6629 1.62552 14.3595 1.35846 12 1.35846C9.64059 1.35846 7.33714 1.62552 5.11275 1.88343C4.60135 1.94271 4.09411 2.00152 3.59134 2.05648C2.76831 2.14647 2.11519 2.79904 2.02683 3.62224C1.97851 4.07248 1.92754 4.52631 1.87622 4.98351C1.79189 5.73459 1.70654 6.49479 1.63013 7.26323H22.37Z" stroke="black" stroke-width="1.71429"/>
<path d="M8.95789 14.9445C8.95789 15.5398 9.05073 16.3528 9.1558 17.0823C9.29459 18.0458 10.2438 18.6658 11.1629 18.3453C12.7466 17.7926 14.2178 16.9872 15.3001 15.8348C15.7724 15.3319 15.7724 14.557 15.3001 14.0541C14.218 12.9016 12.7467 12.0962 11.163 11.5437C10.2439 11.223 9.29471 11.8431 9.15589 12.8065C9.05078 13.536 8.95789 14.3491 8.95789 14.9445Z" stroke="black" stroke-width="1.71429" stroke-linecap="round" stroke-linejoin="round"/>
<path d="M9.23445 1.46655L7.64783 7.26326" stroke="black" stroke-width="1.71429" stroke-linecap="round" stroke-linejoin="round"/>
<path d="M16.2802 1.5932L14.734 7.26321" stroke="black" stroke-width="1.71429" stroke-linecap="round" stroke-linejoin="round"/>
</g>
<defs>
<clipPath id="clip0_1750_1139">
<rect width="24" height="24" fill="white"/>
</clipPath>
</defs>
</svg>
