<svg width="24" height="24" viewBox="0 0 24 24" fill="none" xmlns="http://www.w3.org/2000/svg">
<path d="M9.98953 3.38139C10.7629 1.50931 13.3547 1.44862 14.1318 3.31915C14.6699 4.61429 15.0805 5.94797 15.494 7.69056C17.3213 7.67192 18.7498 7.71144 20.1917 7.841C22.2187 8.02316 23.0367 10.4879 21.4587 11.7731C20.5668 12.4995 19.609 13.1714 18.4085 13.9249C18.0704 14.1369 17.9185 14.5519 18.0409 14.9316C18.6013 16.6688 18.9797 18.0789 19.274 19.5583C19.6656 21.5256 17.5932 23.0266 15.9086 21.9372C14.6172 21.1022 13.444 20.1408 12.0001 18.7694C10.5693 20.0866 9.40185 21.0213 8.12521 21.8511C6.431 22.9527 4.31387 21.4678 4.70721 19.4856C4.99149 18.053 5.37054 16.6594 5.94738 14.9397C6.0759 14.5565 5.92384 14.1343 5.58093 13.9204C4.34394 13.1488 3.36153 12.4615 2.43983 11.704C0.887248 10.428 1.67985 7.99597 3.68094 7.81107C5.14549 7.67573 6.60782 7.64703 8.50621 7.69056C9.00606 5.99028 9.45482 4.67573 9.98953 3.38139Z" stroke="black" stroke-width="1.71429" stroke-linejoin="round"/>
</svg>
