<svg width="24" height="24" viewBox="0 0 24 24" fill="none" xmlns="http://www.w3.org/2000/svg">
<path d="M7.05005 19.4102H6V9.60203L11.1755 2.23561C11.5939 1.64014 12.276 1.28572 13.0038 1.28572C14.3609 1.28572 15.4046 2.48562 15.2166 3.82963L14.8266 6.61837H18.2388C19.7306 6.61837 22.7143 8.11019 22.7143 11.0939C22.7143 14.0775 19.7143 20.9019 16.5409 20.9019C12.3637 20.9019 8.79053 19.9075 7.05005 19.4102Z" stroke="black" stroke-width="1.71429" stroke-linecap="round" stroke-linejoin="round"/>
<path d="M1.28577 9.21429C1.28577 7.91248 2.3411 6.85715 3.64291 6.85715C4.94472 6.85715 6.00005 7.91248 6.00005 9.21429V19.0714C6.00005 20.3733 4.94472 21.4286 3.64291 21.4286C2.3411 21.4286 1.28577 20.3733 1.28577 19.0714V9.21429Z" stroke="black" stroke-width="1.71429" stroke-linejoin="round"/>
</svg>
