<svg width="24" height="24" viewBox="0 0 24 24" fill="none" xmlns="http://www.w3.org/2000/svg">
<path d="M21.2122 19.0008C21.354 16.7412 21.4286 14.3995 21.4286 12C21.4286 11.0282 21.4164 10.0659 21.3924 9.11466C21.3756 8.44641 21.1587 7.79699 20.7632 7.25812C19.2555 5.2042 18.0545 3.9273 16.075 2.39961C15.5311 1.97979 14.8635 1.75201 14.1766 1.73699C13.4877 1.72194 12.7684 1.71429 12 1.71429C9.67378 1.71429 7.79733 1.78436 5.85547 1.91787C4.20351 2.03145 2.89152 3.34653 2.78779 4.99914C2.64597 7.25886 2.57141 9.60054 2.57141 12C2.57141 14.3995 2.64597 16.7412 2.78779 19.0008C2.89152 20.6536 4.20351 21.9686 5.85547 22.0821C7.79733 22.2156 9.67378 22.2857 12 22.2857C14.3262 22.2857 16.2026 22.2156 18.1445 22.0821C19.7964 21.9686 21.1085 20.6536 21.2122 19.0008Z" stroke="black" stroke-width="1.71429"/>
<path d="M8.73212 12.0268H15.2678" stroke="black" stroke-width="1.71429" stroke-linecap="round"/>
<path d="M8.73212 17.0089H15.2475M8.73212 6.85715H12.6761" stroke="black" stroke-width="1.71429" stroke-linecap="round" stroke-linejoin="round"/>
</svg>
