<svg width="24" height="24" viewBox="0 0 24 24" fill="none" xmlns="http://www.w3.org/2000/svg">
<path d="M7.17461 4.06619C6.57026 4.14143 5.97257 4.21974 5.38227 4.29226C4.56099 4.39316 3.91193 5.05146 3.85383 5.87687C3.50103 10.8883 3.50103 15.6229 3.85383 20.6343C3.91195 21.4598 4.56115 22.1201 5.3857 22.1892C9.92468 22.5698 14.0752 22.5698 18.6142 22.1892C19.4387 22.1201 20.0879 21.4598 20.1461 20.6343C20.4989 15.6229 20.4989 10.8883 20.1461 5.87687C20.0879 5.05146 19.4389 4.39316 18.6176 4.29226C18.0274 4.21974 17.4296 4.14143 16.8253 4.06619" stroke="black" stroke-width="1.71429"/>
<path d="M8.73218 11.1696H15.2679" stroke="black" stroke-width="1.71429" stroke-linecap="round"/>
<path d="M8.73218 16.1518H12.6761" stroke="black" stroke-width="1.71429" stroke-linecap="round"/>
<path d="M14.304 1.28572H9.69598C8.29097 1.28572 7.15198 2.42471 7.15198 3.82972V3.83143C7.15198 5.23645 8.29097 6.37544 9.69598 6.37544H14.304C15.709 6.37544 16.848 5.23645 16.848 3.83143V3.82972C16.848 2.42471 15.709 1.28572 14.304 1.28572Z" stroke="black" stroke-width="1.71429" stroke-linejoin="round"/>
</svg>
