<svg width="24" height="24" viewBox="0 0 24 24" fill="none" xmlns="http://www.w3.org/2000/svg">
<path d="M2.05114 15.778C2.04991 16.3336 2.04993 16.888 2.04993 17.4369" stroke="black" stroke-width="1.71429" stroke-linecap="round" stroke-linejoin="round"/>
<path d="M2.26172 8.54507C2.17445 9.62406 2.12315 10.806 2.09302 12.0363" stroke="black" stroke-width="1.71429" stroke-linecap="round" stroke-linejoin="round"/>
<path d="M2.85681 4.84389C3.0466 4.22267 3.28105 3.74234 3.57062 3.44157C3.87868 3.12156 4.37078 2.86173 4.99765 2.65219" stroke="black" stroke-width="1.71429" stroke-linecap="round" stroke-linejoin="round"/>
<path d="M8.67981 2.00526C9.72834 1.91699 10.8522 1.87376 11.9797 1.86118" stroke="black" stroke-width="1.71429" stroke-linecap="round" stroke-linejoin="round"/>
<path d="M15.7169 1.91537C16.344 1.93845 16.943 1.9667 17.4984 1.99706" stroke="black" stroke-width="1.71429" stroke-linecap="round" stroke-linejoin="round"/>
<path d="M6.39217 20.4228C6.4548 21.2482 7.1102 21.9033 7.93578 21.9657C12.3096 22.2962 16.3785 22.2962 20.7524 21.9657C21.5778 21.9033 22.2334 21.2482 22.296 20.4228C22.6258 16.074 22.6258 12.004 22.296 7.65517C22.2334 6.82962 21.5778 6.17463 20.7524 6.11224C16.3785 5.7818 12.3096 5.7818 7.93578 6.11224C7.1102 6.17463 6.4548 6.8296 6.39217 7.65517C6.06231 12.004 6.06231 16.074 6.39217 20.4228Z" stroke="black" stroke-width="1.71429"/>
</svg>
