<svg width="24" height="24" viewBox="0 0 24 24" fill="none" xmlns="http://www.w3.org/2000/svg">
<path d="M7.00783 4.06705C6.40555 4.14206 5.80994 4.22008 5.22163 4.29234C4.40035 4.39324 3.75129 5.05154 3.69319 5.87696C3.34039 10.8884 3.34039 15.623 3.69319 20.6345C3.7513 21.46 4.4005 22.1203 5.22506 22.1894C9.76404 22.57 13.9146 22.57 18.4536 22.1894C19.2782 22.1203 19.9274 21.46 19.9855 20.6345C20.3381 15.623 20.3381 10.8884 19.9855 5.87696C19.9274 5.05156 19.2782 4.39324 18.457 4.29236C17.8687 4.22008 17.273 4.14206 16.6708 4.06705" stroke="black" stroke-width="1.71429"/>
<path d="M14.1428 1.28571H9.53484C8.12983 1.28571 6.99084 2.42469 6.99084 3.82971V3.83142C6.99084 5.23643 8.12983 6.37542 9.53484 6.37542H14.1428C15.5479 6.37542 16.6868 5.23643 16.6868 3.83142V3.82971C16.6868 2.42469 15.5479 1.28571 14.1428 1.28571Z" stroke="black" stroke-width="1.71429" stroke-linejoin="round"/>
</svg>
