<svg width="24" height="24" viewBox="0 0 24 24" fill="none" xmlns="http://www.w3.org/2000/svg">
<path d="M10.8527 2.89396C10.6156 2.25385 10.0214 1.81381 9.33954 1.78278C6.87664 1.67068 5.3907 1.70072 3.41457 1.83985C2.58894 1.89798 1.93247 2.54872 1.838 3.37098C1.25964 8.40479 1.06776 13.4561 1.67024 18.5014C1.87468 20.2135 3.27657 21.4579 4.95369 21.6405C9.68937 22.1561 14.357 22.1429 19.0924 21.6274C20.7379 21.4483 22.0591 20.1451 22.2554 18.5014C22.6277 15.3832 22.727 12.1868 22.495 8.26607C22.399 6.64173 21.1253 5.33457 19.5036 5.20031C17.1989 5.00951 15.5969 4.99857 12.7642 4.93864C12.0622 4.92378 11.4402 4.48034 11.1963 3.82192L10.8527 2.89396Z" stroke="black" stroke-width="1.71429" stroke-linejoin="round"/>
</svg>
