<svg width="24" height="24" viewBox="0 0 24 24" fill="none" xmlns="http://www.w3.org/2000/svg">
<g clip-path="url(#clip0_1777_1004)">
<path d="M12.0001 1.51337C4.91351 1.51337 2.9536 4.07672 2.64335 9.20343C2.58616 10.1485 3.36367 10.9174 4.31044 10.9174H19.6898C20.6366 10.9174 21.414 10.1485 21.357 9.20343C21.0467 4.07672 19.0867 1.51337 12.0001 1.51337Z" stroke="black" stroke-width="1.71429" stroke-linecap="round" stroke-linejoin="round"/>
<path d="M4.94707 22.4866C3.06628 22.4866 2.59607 20.3969 2.59607 19.3519V18.2544C2.59607 17.3076 3.36359 16.54 4.31036 16.54H8.8654C12.7837 16.54 13.8286 18.7604 14.351 19.2828L17.4857 16.54H19.6897C20.6365 16.54 21.404 17.3076 21.404 18.2544V19.3519C21.404 21.8597 19.8366 22.4866 19.053 22.4866H4.94707Z" stroke="black" stroke-width="1.71429" stroke-linecap="round" stroke-linejoin="round"/>
<path d="M4.31035 10.9174H19.6898C21.5181 10.9174 22.7143 11.5685 22.7143 13.7143C22.7143 15.8527 21.5359 16.54 19.6897 16.54H17.4858L14.351 19.2828C14.274 19.2058 14.1856 19.092 14.0784 18.9536C13.4581 18.1539 12.206 16.54 8.86538 16.54H4.31035C2.46413 16.54 1.28577 15.8529 1.28577 13.7143C1.28577 11.5361 2.4697 10.9174 4.31035 10.9174Z" stroke="black" stroke-width="1.71429" stroke-linejoin="round"/>
</g>
<defs>
<clipPath id="clip0_1777_1004">
<rect width="24" height="24" fill="white"/>
</clipPath>
</defs>
</svg>
