<svg width="24" height="24" viewBox="0 0 24 24" fill="none" xmlns="http://www.w3.org/2000/svg">
<g clip-path="url(#clip0_156_1007)">
<path d="M15.3584 22.4823H8.6415C8.46218 19.188 8.43995 15.971 8.57481 12.6959C8.60825 11.8837 9.21748 11.2066 10.0262 11.1245C11.3987 10.9852 12.6012 10.9852 13.9737 11.1245C14.7824 11.2066 15.3917 11.8837 15.4251 12.6959C15.56 15.971 15.5377 19.188 15.3584 22.4823Z" stroke="black" stroke-width="1.71429" stroke-linejoin="round"/>
<path d="M8.3345 22.4822H3.28159C2.35468 22.4822 1.59519 21.7454 1.57197 20.8186C1.42475 14.9424 1.42815 9.17959 1.58218 3.298C1.60188 2.54594 2.11053 1.88423 2.84858 1.73839C4.33718 1.44426 5.6149 1.44426 7.10349 1.73839C7.84154 1.88423 8.3502 2.54594 8.3699 3.298C8.53843 9.73351 8.52662 16.0268 8.3345 22.4822Z" stroke="black" stroke-width="1.71429" stroke-linejoin="round"/>
<path d="M20.7185 22.4822H15.6656C15.4734 16.0268 15.4616 9.73351 15.6302 3.298C15.6499 2.54594 16.1585 1.88423 16.8965 1.73839C18.3852 1.44426 19.6629 1.44426 21.1515 1.73839C21.8895 1.88423 22.3982 2.54594 22.4179 3.298C22.5718 9.17959 22.5753 14.9424 22.428 20.8186C22.4049 21.7454 21.6454 22.4822 20.7185 22.4822Z" stroke="black" stroke-width="1.71429" stroke-linejoin="round"/>
</g>
<defs>
<clipPath id="clip0_156_1007">
<rect width="24" height="24" fill="white"/>
</clipPath>
</defs>
</svg>
