<svg width="24" height="24" viewBox="0 0 24 24" fill="none" xmlns="http://www.w3.org/2000/svg">
<g clip-path="url(#clip0_1750_1148)">
<path d="M12 8.14285C14.1943 8.14285 15.4286 6.90856 15.4286 4.71428C15.4286 2.51999 14.1943 1.28571 12 1.28571C9.8057 1.28571 8.57141 2.51999 8.57141 4.71428C8.57141 6.90856 9.8057 8.14285 12 8.14285Z" stroke="black" stroke-width="1.71429" stroke-linecap="round" stroke-linejoin="round"/>
<path d="M5.1428 22.7143C7.33709 22.7143 8.57138 21.48 8.57138 19.2857C8.57138 17.0914 7.33709 15.8571 5.1428 15.8571C2.94852 15.8571 1.71423 17.0914 1.71423 19.2857C1.71423 21.48 2.94852 22.7143 5.1428 22.7143Z" stroke="black" stroke-width="1.71429" stroke-linecap="round" stroke-linejoin="round"/>
<path d="M18.8572 22.7143C21.0514 22.7143 22.2857 21.48 22.2857 19.2857C22.2857 17.0914 21.0514 15.8571 18.8572 15.8571C16.6629 15.8571 15.4286 17.0914 15.4286 19.2857C15.4286 21.48 16.6629 22.7143 18.8572 22.7143Z" stroke="black" stroke-width="1.71429" stroke-linecap="round" stroke-linejoin="round"/>
<path d="M5.14282 15.8572C5.14282 15 5.65711 13.2857 7.71425 13.2857C9.77139 13.2857 9.71426 13.2857 9.42854 13.2857C10.2857 13.2857 12 12.0857 12 10.7143C12 9.34288 12 8.71431 12 8.14288" stroke="black" stroke-width="1.71429"/>
<path d="M18.8571 15.8572C18.8571 15 18.3429 13.2857 16.2857 13.2857C14.2286 13.2857 14.2857 13.2857 14.5714 13.2857C13.7143 13.2857 12 12.0857 12 10.7143C12 9.34288 12 8.71431 12 8.14288" stroke="black" stroke-width="1.71429"/>
</g>
<defs>
<clipPath id="clip0_1750_1148">
<rect width="24" height="24" fill="white"/>
</clipPath>
</defs>
</svg>
