<svg width="24" height="24" viewBox="0 0 24 24" fill="none" xmlns="http://www.w3.org/2000/svg">
<g clip-path="url(#clip0_1750_1164)">
<path d="M1.64554 17.6031C1.90977 20.0729 3.89611 22.0592 6.36461 22.3344C8.19813 22.5387 10.0807 22.7143 12.0001 22.7143C13.9194 22.7143 15.802 22.5387 17.6354 22.3344C20.104 22.0592 22.0903 20.0729 22.3545 17.6031C22.5496 15.78 22.7143 13.9082 22.7143 12C22.7143 10.0917 22.5496 8.21996 22.3545 6.3968C22.0903 3.92711 20.104 1.94075 17.6354 1.66561C15.802 1.46123 13.9194 1.28571 12.0001 1.28571C10.0807 1.28571 8.19813 1.46123 6.36461 1.66561C3.89611 1.94075 1.90977 3.92711 1.64554 6.3968C1.45048 8.21996 1.28577 10.0917 1.28577 12C1.28577 13.9082 1.45048 15.78 1.64554 17.6031Z" stroke="black" stroke-width="1.71429"/>
<path d="M8.57143 11.1429C9.99159 11.1429 11.1429 9.99159 11.1429 8.57143C11.1429 7.15126 9.99159 6 8.57143 6C7.15126 6 6 7.15126 6 8.57143C6 9.99159 7.15126 11.1429 8.57143 11.1429Z" stroke="black" stroke-width="1.71429" stroke-linecap="round" stroke-linejoin="round"/>
<path d="M6.36454 22.3344C3.89604 22.0593 1.9097 20.0729 1.64547 17.6031C1.62908 17.4501 1.61292 17.2966 1.59705 17.1429H22.4029C22.387 17.2966 22.3709 17.4501 22.3546 17.6031C22.0902 20.0729 20.1039 22.0593 17.6355 22.3344C15.8019 22.5387 13.9193 22.7143 12 22.7143C10.0806 22.7143 8.19804 22.5387 6.36454 22.3344Z" stroke="black" stroke-width="1.71429"/>
<path d="M17.1429 12C19.2814 12 21.1169 13.2402 22.6008 14.9294C22.5472 15.6743 22.4784 16.4124 22.403 17.1429H8.74817C11.1062 14.341 14.002 12 17.1429 12Z" stroke="black" stroke-width="1.71429" stroke-linejoin="round"/>
</g>
<defs>
<clipPath id="clip0_1750_1164">
<rect width="24" height="24" fill="white"/>
</clipPath>
</defs>
</svg>
