<svg width="24" height="24" viewBox="0 0 24 24" fill="none" xmlns="http://www.w3.org/2000/svg">
<path d="M6.31137 15.5147C5.29953 15.4329 4.30537 15.3292 3.33224 15.2373C2.50977 15.1596 1.84665 14.5186 1.73812 13.6996C1.52736 12.1091 1.28571 10.453 1.28571 8.75195C1.28571 7.05089 1.52736 5.3948 1.73812 3.80432C1.84665 2.98536 2.50977 2.34435 3.33224 2.26664C5.31376 2.07942 7.38251 1.84338 9.51018 1.84338C11.6378 1.84338 13.7066 2.07942 15.6881 2.26664C16.5106 2.34435 17.1737 2.98536 17.2822 3.80432C17.443 5.01822 17.622 6.27035 17.6976 7.55153" stroke="black" stroke-width="1.71429"/>
<path d="M22.6159 16.3404C21.1541 15.1131 19.1184 13.5536 17.4751 13.5536C14.4194 13.5536 10.9876 17.7338 8.89288 20.8911C10.4162 21.024 12.2752 21.2319 13.8703 21.2319C15.8329 21.2319 17.7489 21.0586 19.5991 20.8911C19.9077 20.8632 20.2144 20.8354 20.5193 20.8087C21.4044 20.731 22.1181 20.09 22.235 19.271C22.2535 19.1407 22.2724 19.0097 22.2912 18.8786C22.4105 18.0487 22.5324 17.2016 22.6159 16.3404Z" stroke="black" stroke-width="1.71429" stroke-linecap="round" stroke-linejoin="round"/>
<path d="M6.7178 19.271C6.82633 20.0901 7.48945 20.731 8.31191 20.8087C10.2934 20.9959 12.3622 21.2319 14.4898 21.2319C16.6175 21.2319 18.6863 20.9959 20.6678 20.8087C21.4903 20.731 22.1534 20.0901 22.2619 19.271C22.4726 17.6805 22.7143 16.0244 22.7143 14.3234C22.7143 12.6223 22.4726 10.9662 22.2619 9.37573C22.1534 8.55677 21.4903 7.91576 20.6678 7.83805C18.6863 7.65083 16.6175 7.41479 14.4898 7.41479C12.3622 7.41479 10.2934 7.65083 8.31191 7.83805C7.48945 7.91576 6.82633 8.55677 6.7178 9.37573C6.50703 10.9662 6.26538 12.6223 6.26538 14.3234C6.26538 16.0244 6.50703 17.6805 6.7178 19.271Z" stroke="black" stroke-width="1.71429"/>
</svg>
