<svg width="24" height="24" viewBox="0 0 24 24" fill="none" xmlns="http://www.w3.org/2000/svg">
<path d="M19.9271 8.72896C19.9363 7.40948 19.5921 6.11159 18.9302 4.97006C18.2683 3.82854 17.3129 2.88498 16.1633 2.23734C15.0136 1.58971 13.7116 1.2616 12.3923 1.28708C11.073 1.31257 9.78464 1.69072 8.66086 2.38228C7.53707 3.07384 6.61889 4.05359 6.00162 5.21982C5.38434 6.38606 5.09048 7.69628 5.15055 9.01442C5.21062 10.3326 5.62242 11.6106 6.34319 12.7159C7.63031 14.6896 8.39235 15.4151 8.39235 17.7639C8.39235 17.9816 8.47889 18.1906 8.63291 18.3447C8.78696 18.4987 8.99588 18.5852 9.21371 18.5852H15.8561C16.074 18.5852 16.2829 18.4987 16.4369 18.3447C16.591 18.1906 16.6775 17.9816 16.6775 17.7639C16.6775 15.3585 17.53 14.6444 18.8085 12.5987C19.534 11.4379 19.9214 10.0978 19.9271 8.72896Z" stroke="black" stroke-width="1.71429" stroke-linecap="round" stroke-linejoin="round"/>
<path d="M10.2811 22.7143H14.7893" stroke="black" stroke-width="1.71429" stroke-linecap="round" stroke-linejoin="round"/>
</svg>
