<svg width="24" height="24" viewBox="0 0 24 24" fill="none" xmlns="http://www.w3.org/2000/svg">
<g clip-path="url(#clip0_165_977)">
<path d="M11.2857 5.58434C9.12887 5.54535 6.98953 5.59455 4.78854 5.73195C3.13602 5.83512 1.82343 7.15251 1.64679 8.79879C1.46109 10.5296 1.28571 12.316 1.28571 14.1428C1.28571 15.9696 1.46109 17.7562 1.64679 19.487C1.82343 21.1332 3.13619 22.4506 4.78869 22.5538C8.21752 22.7678 11.4967 22.7678 14.9256 22.5538C16.5781 22.4506 17.8908 21.1332 18.0675 19.487C18.2532 17.7562 18.4286 15.9696 18.4286 14.1428C18.4286 13.6638 18.4166 13.1875 18.3953 12.7143" stroke="black" stroke-width="1.71429" stroke-linecap="round"/>
<path d="M12.4288 11.4582L22.2919 1.59491" stroke="black" stroke-width="1.71429" stroke-linecap="round" stroke-linejoin="round"/>
<path d="M22.3343 8.54466C22.6103 5.76645 22.6104 4.24053 22.3343 1.58365C19.6775 1.30757 18.1516 1.30773 15.3733 1.58365" stroke="black" stroke-width="1.71429" stroke-linecap="round" stroke-linejoin="round"/>
</g>
<defs>
<clipPath id="clip0_165_977">
<rect width="24" height="24" fill="white"/>
</clipPath>
</defs>
</svg>
