<svg width="24" height="24" viewBox="0 0 24 24" fill="none" xmlns="http://www.w3.org/2000/svg">
<g clip-path="url(#clip0_165_964)">
<path d="M8.89794 11.7209C7.93585 10.7588 6.41999 10.6312 5.31057 11.4189L4.82832 11.7613C3.79475 12.4952 2.88926 13.3945 2.14831 14.423C1.15689 15.7993 1.30964 17.6914 2.509 18.8907L5.10926 21.491C6.30863 22.6903 8.20072 22.843 9.57695 21.8517C10.6055 21.1107 11.5048 20.2053 12.2386 19.1717L12.6147 18.642" stroke="black" stroke-width="1.71429" stroke-linecap="round" stroke-linejoin="round"/>
<path d="M2.14831 14.423C1.15689 15.7993 1.30964 17.6914 2.509 18.8907L5.10926 21.491C6.30863 22.6903 8.20072 22.843 9.57695 21.8517C10.6055 21.1107 11.5048 20.2053 12.2386 19.1717L12.6147 18.642C13.383 17.5599 13.2585 16.0815 12.3202 15.1432L8.89794 11.7209C7.93585 10.7588 6.41999 10.6312 5.31057 11.4189L4.82832 11.7613C3.79475 12.4952 2.88926 13.3945 2.14831 14.423Z" stroke="black" stroke-width="1.71429" stroke-linecap="round" stroke-linejoin="round"/>
<path d="M21.4908 5.10928L18.8905 2.50901C17.6912 1.30965 15.7991 1.1569 14.4229 2.14833C13.3944 2.88928 12.4951 3.79476 11.7612 4.82834L11.4188 5.31059C10.6311 6.42 10.7587 7.93586 11.7208 8.89795L15.1431 12.3202C16.0814 13.2586 17.5597 13.383 18.6418 12.6148L19.1715 12.2386C20.2051 11.5048 21.1105 10.6055 21.8515 9.57696C22.843 8.20073 22.6903 6.30864 21.4908 5.10928Z" stroke="black" stroke-width="1.71429" stroke-linecap="round" stroke-linejoin="round"/>
<path d="M15.1916 8.80841L8.82379 15.1762" stroke="black" stroke-width="1.71429" stroke-linecap="round" stroke-linejoin="round"/>
</g>
<defs>
<clipPath id="clip0_165_964">
<rect width="24" height="24" fill="white"/>
</clipPath>
</defs>
</svg>
