<svg width="24" height="24" viewBox="0 0 24 24" fill="none" xmlns="http://www.w3.org/2000/svg">
<path d="M3.23605 18.1819C3.51482 20.6414 5.59465 22.559 8.06829 22.6467C9.32308 22.6913 10.6115 22.7143 12.0002 22.7143C13.3888 22.7143 14.6772 22.6913 15.932 22.6467C18.4056 22.559 20.4856 20.6414 20.7643 18.1819C20.8615 17.3247 20.9287 16.4537 20.9287 15.5715C20.9287 14.6892 20.8615 13.8183 20.7643 12.961C20.4856 10.5015 18.4056 8.58393 15.932 8.49614C14.6772 8.45162 13.3888 8.42861 12.0002 8.42861C10.6115 8.42861 9.32308 8.45162 8.06829 8.49614C5.59465 8.58393 3.51482 10.5015 3.23605 12.961C3.13888 13.8183 3.07159 14.6892 3.07159 15.5715C3.07159 16.4537 3.13888 17.3247 3.23605 18.1819Z" stroke="black" stroke-width="1.71429"/>
<path d="M16.9999 8.42858V6.28572C16.9999 4.95963 16.4731 3.68786 15.5354 2.75018C14.5977 1.8125 13.326 1.28571 11.9999 1.28571C10.6738 1.28571 9.40204 1.8125 8.46434 2.75018C7.52666 3.68786 6.99988 4.95963 6.99988 6.28572V8.42858" stroke="black" stroke-width="1.71429" stroke-linecap="round" stroke-linejoin="round"/>
<path d="M12 14.5715V16.2857" stroke="black" stroke-width="1.71429" stroke-linecap="round" stroke-linejoin="round"/>
</svg>
