<svg width="24" height="24" viewBox="0 0 24 24" fill="none" xmlns="http://www.w3.org/2000/svg">
<path d="M15.5608 5.09866C15.4694 4.2758 14.8151 3.62206 13.9925 3.52831C10.4417 3.12358 7.12726 3.12358 3.57643 3.52831C2.75383 3.62206 2.09953 4.27579 2.00815 5.09866C1.61626 8.62664 1.61626 15.3734 2.00815 18.9014C2.09953 19.7242 2.75383 20.3779 3.57643 20.4717C7.12726 20.8764 10.4417 20.8764 13.9925 20.4717C14.8151 20.3779 15.4694 19.7242 15.5608 18.9014" stroke="black" stroke-width="1.71429" stroke-linecap="round"/>
<path d="M9.82153 12H22.5888" stroke="black" stroke-width="1.71429" stroke-linecap="round" stroke-linejoin="round"/>
<path d="M19.1243 16.0371C20.6742 14.8104 21.3954 13.9749 22.3387 12.7298C22.6725 12.2892 22.6725 11.7112 22.3387 11.2707C21.3954 10.0255 20.6742 9.19002 19.1243 7.96335" stroke="black" stroke-width="1.71429" stroke-linecap="round" stroke-linejoin="round"/>
</svg>
