<svg width="24" height="24" viewBox="0 0 24 24" fill="none" xmlns="http://www.w3.org/2000/svg">
<path d="M17.1897 17.0768C19.3494 15.3074 20.4285 14.2285 22.1119 12.1546C20.4285 10.0807 19.3494 9.00179 17.1897 7.23242" stroke="black" stroke-width="1.71429" stroke-linecap="round" stroke-linejoin="round"/>
<path d="M6.86401 12.1548H22.0572" stroke="black" stroke-width="1.71429" stroke-linecap="round" stroke-linejoin="round"/>
<path d="M16.8645 2.36361C16.3105 1.85291 15.5636 1.51657 14.7205 1.45656C13.1435 1.34431 11.5192 1.28571 9.86025 1.28571C8.20126 1.28571 6.57698 1.34431 5.00002 1.45656C3.26475 1.58008 1.93726 2.87406 1.85889 4.44964C1.73782 6.88307 1.67407 9.40917 1.67407 12C1.67407 14.5908 1.73782 17.1169 1.85889 19.5504C1.93726 21.126 3.26475 22.4199 5.00002 22.5434C6.57698 22.6556 8.20126 22.7143 9.86025 22.7143C11.5192 22.7143 13.1435 22.6556 14.7205 22.5434C15.5636 22.4834 16.3105 22.147 16.8645 21.6363" stroke="black" stroke-width="1.71429" stroke-linecap="round"/>
</svg>
