<svg width="24" height="24" viewBox="0 0 24 24" fill="none" xmlns="http://www.w3.org/2000/svg">
<path d="M21.3929 2.206C20.2673 1.08041 18.0998 0.847319 9.89567 4.21588C4.17791 6.56359 0.875153 7.95384 1.45366 11.5323C1.7077 13.1037 3.32452 15.5162 5.14276 17.4562V20.9818C5.14276 22.4702 6.90899 23.2515 8.0102 22.2504L9.40059 20.9865C10.3851 21.5969 11.3207 22.0246 12.0666 22.1453C15.6451 22.7237 17.0353 19.421 19.3831 13.7032C22.7517 5.49921 22.5185 3.3316 21.3929 2.206Z" stroke="black" stroke-width="1.71429" stroke-linejoin="round"/>
<path d="M21.5488 2.37588L4.6832 16.9508C3.05901 15.1112 1.68617 12.9698 1.45378 11.5323C0.875275 7.95384 4.17803 6.56359 9.89579 4.21588C18.0998 0.847319 20.2675 1.08041 21.3931 2.206C21.4471 2.26005 21.4991 2.31648 21.5488 2.37588Z" stroke="black" stroke-width="1.71429" stroke-linejoin="round"/>
</svg>
