<svg width="24" height="24" viewBox="0 0 24 24" fill="none" xmlns="http://www.w3.org/2000/svg">
<g clip-path="url(#clip0_1750_1150)">
<path d="M6.90412 2.82255C8.52443 1.85199 10.3777 1.33912 12.2664 1.33853C13.8379 1.3376 15.3893 1.69138 16.8049 2.3735C18.2206 3.05561 19.4641 4.04846 20.4427 5.27805C21.4212 6.50762 22.1096 7.94222 22.4566 9.47489C22.8036 11.0076 22.8001 12.5988 22.4465 14.1299C22.0928 15.6611 21.3982 17.0926 20.4142 18.318C19.4304 19.5432 18.1825 20.5306 16.7639 21.2066C15.3452 21.8825 13.7923 22.2295 12.2209 22.2218C10.9093 22.2153 9.61309 21.9617 8.39936 21.4769L2.69219 22.4273C2.05453 22.5334 1.5333 21.9225 1.73867 21.3094L3.19866 16.9518C2.3854 15.5254 1.91829 13.924 1.83981 12.2772C1.74993 10.3905 2.17345 8.51487 3.06527 6.84992C3.95708 5.18498 5.2838 3.79311 6.90412 2.82255Z" stroke="black" stroke-width="1.71429" stroke-linecap="round" stroke-linejoin="round"/>
</g>
<defs>
<clipPath id="clip0_1750_1150">
<rect width="24" height="24" fill="white"/>
</clipPath>
</defs>
</svg>
