<svg width="24" height="24" viewBox="0 0 24 24" fill="none" xmlns="http://www.w3.org/2000/svg">
<g clip-path="url(#clip0_165_1036)">
<path d="M16.9945 11.9997C16.9944 12.9742 16.7063 13.927 16.1665 14.7383C15.6267 15.5496 14.8592 16.1834 13.9604 16.56C13.0616 16.9365 12.0715 17.0392 11.1146 16.8549C10.1577 16.6707 9.27651 16.2079 8.58176 15.5245C7.88701 14.8412 7.40965 13.9678 7.20965 13.014C7.00964 12.0602 7.09589 11.0686 7.45755 10.1637C7.81923 9.25884 8.44021 8.48098 9.2425 7.92784C10.0448 7.37469 10.9926 7.07092 11.967 7.05466C12.6233 7.04373 13.2752 7.16356 13.8847 7.40717C14.4942 7.65077 15.0491 8.01329 15.5171 8.47358C15.9851 8.93386 16.3567 9.48271 16.6104 10.0881C16.864 10.6935 16.9946 11.3433 16.9945 11.9997Z" stroke="black" stroke-width="1.71429" stroke-linecap="round" stroke-linejoin="round"/>
<path d="M16.9944 12V14.1429C16.9944 19.8957 26.0108 14.4726 21.2801 6.65935C20.3275 5.03251 18.9679 3.68158 17.335 2.73939C15.7021 1.79722 13.8521 1.29625 11.9669 1.28571C10.3831 1.2906 8.82011 1.64656 7.39038 2.32796C5.96066 3.00936 4.69977 3.99926 3.69849 5.22641C2.69721 6.45355 1.98045 7.88741 1.59978 9.42478C1.21912 10.9622 1.18402 12.5648 1.49701 14.1174C1.81002 15.6699 2.46332 17.1338 3.40991 18.4035C4.3565 19.6735 5.57284 20.7175 6.97137 21.461C8.3699 22.2043 9.91583 22.6282 11.4979 22.7025C13.08 22.7767 14.6588 22.4993 16.1208 21.8902" stroke="black" stroke-width="1.71429" stroke-linecap="round" stroke-linejoin="round"/>
</g>
<defs>
<clipPath id="clip0_165_1036">
<rect width="24" height="24" fill="white"/>
</clipPath>
</defs>
</svg>
