<svg width="24" height="24" viewBox="0 0 24 24" fill="none" xmlns="http://www.w3.org/2000/svg">
<g clip-path="url(#clip0_1777_1000)">
<path d="M5.49862 1.73742C7.73167 1.48436 10.1814 1.28571 12.4286 1.28571C14.6761 1.28571 17.1278 1.4844 19.3619 1.73751C20.8999 1.91173 22.1071 3.12993 22.2748 4.66863C22.5167 6.89001 22.7143 9.33728 22.7143 11.5714C22.7143 13.8061 22.5167 16.2581 22.2746 18.4822C22.1071 20.021 20.8999 21.2391 19.3617 21.4118C17.1276 21.6626 14.676 21.8571 12.4286 21.8571C10.4687 21.8571 8.35478 21.7092 6.36487 21.505L1.28577 22.7143L2.46293 17.2994C2.27882 15.4088 2.14298 13.4161 2.14298 11.5714C2.14298 9.33724 2.34221 6.88996 2.58514 4.66856C2.75338 3.12993 3.96067 1.91171 5.49862 1.73742Z" stroke="black" stroke-width="1.71429" stroke-linejoin="round"/>
<path d="M8.25 9.42856H16.6071" stroke="black" stroke-width="1.71429" stroke-linecap="round" stroke-linejoin="round"/>
<path d="M8.25 14.5714H14.5714" stroke="black" stroke-width="1.71429" stroke-linecap="round" stroke-linejoin="round"/>
</g>
<defs>
<clipPath id="clip0_1777_1000">
<rect width="24" height="24" fill="white"/>
</clipPath>
</defs>
</svg>
