<svg width="24" height="24" viewBox="0 0 24 24" fill="none" xmlns="http://www.w3.org/2000/svg">
<path d="M1.76857 18.0629C1.97241 19.7049 3.29888 21.0019 4.94447 21.174C7.22156 21.4119 9.58155 21.6633 12 21.6633C14.4184 21.6633 16.7784 21.4119 19.0555 21.174C20.701 21.0019 22.0275 19.7049 22.2314 18.0629C22.4748 16.1025 22.7143 14.0752 22.7143 12C22.7143 9.92475 22.4748 7.89742 22.2314 5.93707C22.0275 4.29513 20.701 2.99803 19.0555 2.826C16.7784 2.58797 14.4184 2.33664 12 2.33664C9.58155 2.33664 7.22154 2.58797 4.94447 2.826C3.29888 2.99803 1.97241 4.29513 1.76855 5.93707C1.52517 7.89742 1.28571 9.92475 1.28571 12C1.28571 14.0752 1.52517 16.1025 1.76857 18.0629Z" stroke="black" stroke-width="1.71429"/>
<path d="M1.81641 5.49316L9.87718 11.8488C11.1222 12.8304 12.8778 12.8304 14.1228 11.8488L22.1835 5.49316" stroke="black" stroke-width="1.71429" stroke-linejoin="round"/>
</svg>
