<svg width="24" height="24" viewBox="0 0 24 24" fill="none" xmlns="http://www.w3.org/2000/svg">
<g clip-path="url(#clip0_1750_1183)">
<path d="M10.5094 19.6049C9.37737 19.5993 8.25865 19.3793 7.2111 18.9588L2.47669 19.7511C1.83935 19.8578 1.3177 19.2477 1.52207 18.6346L2.7225 15.034C2.02058 13.7968 1.61743 12.4078 1.54971 10.9794C1.47213 9.34305 1.83765 7.71619 2.60737 6.27209C3.37706 4.828 4.52214 3.62074 5.92059 2.77894C7.31905 1.93713 8.91853 1.49227 10.5487 1.49176C11.905 1.49096 13.2439 1.79781 14.4658 2.38944C15.6876 2.98107 16.7608 3.84223 17.6054 4.9087C18.45 5.97519 19.0442 7.21949 19.3435 8.54885C19.4342 8.95135 19.4971 9.35851 19.5324 9.76745" stroke="black" stroke-width="1.71429" stroke-linecap="round" stroke-linejoin="round"/>
<path d="M19.2917 9.60277C18.2429 8.9714 17.0433 8.63777 15.8206 8.63739C14.8034 8.63679 13.7992 8.86692 12.8828 9.31064C11.9664 9.75437 11.1615 10.4002 10.5281 11.2001C9.89466 12 9.44904 12.9332 9.22447 13.9302C8.99988 14.9272 9.00213 15.9623 9.23104 16.9584C9.45995 17.9544 9.9096 18.8856 10.5465 19.6828C11.1834 20.4799 11.9911 21.1221 12.9094 21.5618C13.8277 22.0015 14.8329 22.2273 15.8501 22.2223C16.6991 22.218 17.5382 22.0531 18.3238 21.7377L21.8746 22.3318C22.3526 22.4119 22.7439 21.9544 22.5907 21.4946L21.6903 18.7941C22.2168 17.8661 22.519 16.8244 22.5699 15.7531C22.628 14.5259 22.3539 13.3057 21.7766 12.2226C21.1994 11.1396 20.3405 10.2341 19.2917 9.60277Z" stroke="black" stroke-width="1.71429" stroke-linecap="round" stroke-linejoin="round"/>
</g>
<defs>
<clipPath id="clip0_1750_1183">
<rect width="24" height="24" fill="white"/>
</clipPath>
</defs>
</svg>
