<svg width="24" height="24" viewBox="0 0 24 24" fill="none" xmlns="http://www.w3.org/2000/svg">
<path d="M3.19366 19.0193C3.28877 20.6703 4.58232 21.9991 6.23167 22.1194C10.1585 22.4059 13.8414 22.4059 17.7682 22.1194C19.4175 21.9991 20.7111 20.6703 20.8063 19.0193C21.0792 14.2803 21.0792 9.71967 20.8063 4.98067C20.7111 3.32967 19.4175 2.00098 17.7682 1.8806C13.8414 1.59404 10.1585 1.59404 6.23167 1.8806C4.58232 2.00098 3.28877 3.32967 3.19366 4.98067C2.92063 9.71967 2.92064 14.2803 3.19366 19.0193Z" stroke="black" stroke-width="1.71429"/>
<path d="M20.9886 9.68916H3.01135C3.04159 8.13072 3.10236 6.56566 3.19368 4.98067C3.28879 3.32967 4.58234 2.00098 6.23169 1.8806C10.1585 1.59404 13.8414 1.59404 17.7682 1.8806C19.4175 2.00098 20.7111 3.32967 20.8062 4.98067C20.8976 6.56566 20.9583 8.13072 20.9886 9.68916Z" stroke="black" stroke-width="1.71429" stroke-linejoin="round"/>
<path d="M14.2527 5.67743H16.6071" stroke="black" stroke-width="1.71429" stroke-linecap="round" stroke-linejoin="round"/>
<path d="M7.37878 17.8857H7.86156" stroke="black" stroke-width="1.71429" stroke-linecap="round" stroke-linejoin="round"/>
<path d="M11.7587 17.8857H12.2414" stroke="black" stroke-width="1.71429" stroke-linecap="round" stroke-linejoin="round"/>
<path d="M16.2057 17.8857H16.6884" stroke="black" stroke-width="1.71429" stroke-linecap="round" stroke-linejoin="round"/>
<path d="M7.37878 14.0284H7.86156" stroke="black" stroke-width="1.71429" stroke-linecap="round" stroke-linejoin="round"/>
<path d="M11.7587 14.0284H12.2414" stroke="black" stroke-width="1.71429" stroke-linecap="round" stroke-linejoin="round"/>
<path d="M16.2057 14.0284H16.6884" stroke="black" stroke-width="1.71429" stroke-linecap="round" stroke-linejoin="round"/>
</svg>
