<svg width="24" height="24" viewBox="0 0 24 24" fill="none" xmlns="http://www.w3.org/2000/svg">
<g clip-path="url(#clip0_1566_955)">
<path d="M8.33444 22.4822H3.21802C2.31687 22.4822 1.56699 21.7845 1.52703 20.8843C1.4403 18.9307 1.44306 16.9993 1.5353 15.0442C1.57412 14.2216 2.20923 13.5497 3.03018 13.4845C4.38178 13.3771 5.57017 13.3771 6.92176 13.4845C7.74272 13.5497 8.37783 14.2216 8.41664 15.0442C8.53395 17.5303 8.50654 19.9781 8.33444 22.4822Z" stroke="black" stroke-width="1.71429" stroke-linejoin="round"/>
<path d="M15.3585 22.4822H8.64163C8.45575 18.0285 8.43866 13.6829 8.59034 9.24907C8.61744 8.45712 9.18847 7.78135 9.9737 7.67506C11.3858 7.48392 12.6144 7.48392 14.0265 7.67506C14.8117 7.78135 15.3827 8.45712 15.4098 9.24907C15.5615 13.6829 15.5444 18.0285 15.3585 22.4822Z" stroke="black" stroke-width="1.71429" stroke-linejoin="round"/>
<path d="M20.6548 22.4822H15.5821C15.3945 17.9877 15.3788 8.56495 15.5351 3.24603C15.5583 2.45397 16.1289 1.78135 16.9142 1.67506C18.3262 1.48392 19.5549 1.48392 20.9669 1.67506C21.7522 1.78135 22.3229 2.45397 22.3461 3.24603C22.4853 7.98279 22.488 15.9742 22.3545 20.8411C22.3293 21.7598 21.5738 22.4822 20.6548 22.4822Z" stroke="black" stroke-width="1.71429" stroke-linejoin="round"/>
</g>
<defs>
<clipPath id="clip0_1566_955">
<rect width="24" height="24" fill="white"/>
</clipPath>
</defs>
</svg>
