<svg width="24" height="24" viewBox="0 0 24 24" fill="none" xmlns="http://www.w3.org/2000/svg">
<path d="M4.18704 19.0353C4.32829 20.6772 5.6001 22.0174 7.24296 22.1463C10.4816 22.4007 13.5181 22.4007 16.7568 22.1463C18.3996 22.0174 19.6714 20.6772 19.8127 19.0353C20.0081 16.7648 20.2095 14.4116 20.2095 12C20.2095 9.58848 20.0081 7.23524 19.8127 4.96471C19.6714 3.32287 18.3996 1.98267 16.7568 1.85369C13.5181 1.59939 10.4816 1.59939 7.24296 1.85369C5.6001 1.98267 4.32829 3.32287 4.18704 4.96471C3.99171 7.23524 3.79016 9.58848 3.79016 12C3.79016 14.4116 3.99173 16.7648 4.18704 19.0353Z" stroke="black" stroke-width="1.71429"/>
<path d="M10.8226 17.4255H13.1771" stroke="black" stroke-width="1.71429" stroke-linecap="round" stroke-linejoin="round"/>
</svg>
