<svg width="24" height="24" viewBox="0 0 24 24" fill="none" xmlns="http://www.w3.org/2000/svg">
<path d="M8.26837 2.53644C7.051 1.5162 5.23719 1.66285 4.31351 2.95504C4.06681 3.30017 3.77446 3.71184 3.2695 4.34349C1.53243 6.51638 1.53244 9.66266 3.2791 11.8279C4.56851 13.4262 5.92045 15.0391 7.43175 16.5504C8.94304 18.0617 10.5559 19.4136 12.1543 20.7031C14.3195 22.4498 17.4658 22.4498 19.6387 20.7127C20.3125 20.1739 20.7329 19.8802 21.0898 19.6255C22.3381 18.734 22.513 16.9855 21.5383 15.8012C20.7682 14.8653 19.9105 13.9725 19.0832 13.1009C18.4241 12.4067 17.3235 12.3613 16.5755 12.9587C16.3743 13.1193 16.1245 13.3311 15.618 13.8059C13.1326 12.329 11.6262 10.8043 10.1762 8.36407C10.6568 7.85145 10.8687 7.60094 11.0308 7.3978C11.6271 6.65039 11.5829 5.55259 10.8845 4.89952C10.0333 4.10357 9.16707 3.2896 8.26837 2.53644Z" stroke="black" stroke-width="1.71429" stroke-linejoin="round"/>
</svg>
