<svg width="24" height="24" viewBox="0 0 24 24" fill="none" xmlns="http://www.w3.org/2000/svg">
<path d="M12.9902 21.9021C15.1765 20.0074 20.2236 15.0355 20.2236 9.50922C20.2236 4.96751 16.5418 1.28572 12 1.28572C7.45834 1.28572 3.77655 4.96751 3.77655 9.50922C3.77655 15.0355 8.82361 20.0074 11.0099 21.9021C11.5844 22.3999 12.4157 22.3999 12.9902 21.9021Z" stroke="black" stroke-width="1.71429" stroke-linecap="round" stroke-linejoin="round"/>
<path d="M12.0001 12.3945C13.8603 12.3945 15.3683 10.8865 15.3683 9.02634C15.3683 7.16613 13.8603 5.65814 12.0001 5.65814C10.1399 5.65814 8.6319 7.16613 8.6319 9.02634C8.6319 10.8865 10.1399 12.3945 12.0001 12.3945Z" stroke="black" stroke-width="1.71429" stroke-linecap="round" stroke-linejoin="round"/>
</svg>
