<svg width="24" height="24" viewBox="0 0 24 24" fill="none" xmlns="http://www.w3.org/2000/svg">
<path d="M20.3253 13.4847C20.2714 13.4167 20.2423 13.3326 20.2426 13.2459V10.7541C20.2423 10.6674 20.2714 10.5832 20.3253 10.5153L21.4747 9.07499C21.6814 8.81612 21.8054 8.50089 21.8302 8.17048C21.8551 7.84007 21.7798 7.50985 21.6141 7.22295L20.9436 6.06275C20.7782 5.77561 20.5301 5.54502 20.2317 5.40111C19.9332 5.25721 19.5982 5.20667 19.2706 5.25611L17.4492 5.53316C17.3632 5.54524 17.2754 5.52856 17.1998 5.48571L15.0415 4.23978C14.9655 4.19409 14.9072 4.12393 14.8762 4.0408L14.2043 2.33264C14.084 2.02449 13.8736 1.75977 13.6005 1.57301C13.3275 1.38625 13.0045 1.28613 12.6737 1.28571H11.3298C10.999 1.28613 10.676 1.38625 10.403 1.57301C10.1299 1.75977 9.9195 2.02449 9.79919 2.33264L9.12419 4.0408C9.09203 4.12167 9.03387 4.18952 8.95888 4.23366L6.79613 5.48571C6.72049 5.52867 6.63275 5.54536 6.54665 5.53316L4.72979 5.25611C4.40216 5.20667 4.06724 5.25721 3.76876 5.40111C3.47031 5.54502 3.2222 5.77561 3.05684 6.06275L2.38643 7.22295C2.22064 7.50985 2.14525 7.84007 2.17011 8.17048C2.19495 8.50089 2.31889 8.81612 2.52572 9.07499L3.67522 10.5153C3.72899 10.5832 3.75814 10.6674 3.75786 10.7541V13.2459C3.75814 13.3326 3.72899 13.4167 3.67522 13.4847L2.52572 14.925C2.31889 15.1839 2.19495 15.4991 2.17011 15.8295C2.14525 16.1599 2.22064 16.4902 2.38643 16.777L3.05684 17.9372C3.2222 18.2244 3.47031 18.455 3.76876 18.5988C4.06724 18.7428 4.40216 18.7934 4.72979 18.7438L6.55122 18.4668C6.63735 18.4546 6.72509 18.4712 6.80072 18.5143L8.95888 19.7602C9.03387 19.8043 9.09203 19.8722 9.12419 19.9531L9.79612 21.6674C9.91645 21.9754 10.1269 22.2403 10.3999 22.427C10.6729 22.6136 10.9959 22.7139 11.3267 22.7143H12.6676C12.9984 22.7139 13.3213 22.6136 13.5944 22.427C13.8674 22.2403 14.0778 21.9754 14.1982 21.6674L14.8701 19.9531C14.9023 19.8722 14.9604 19.8043 15.0354 19.7602L17.1936 18.5143C17.2692 18.4714 17.357 18.4548 17.443 18.4668L19.2645 18.7438C19.5921 18.7934 19.927 18.7428 20.2255 18.5988C20.524 18.455 20.7722 18.2244 20.9374 17.9372L21.6079 16.777C21.7737 16.4902 21.8491 16.1599 21.8242 15.8295C21.7994 15.4991 21.6754 15.1839 21.4685 14.925L20.3253 13.4847ZM12.0002 15.4439C11.3191 15.4439 10.6532 15.2419 10.0869 14.8635C9.52055 14.4851 9.07914 13.9472 8.81849 13.3179C8.55783 12.6886 8.48962 11.9962 8.62251 11.3281C8.75538 10.6601 9.08338 10.0464 9.56502 9.5648C10.0467 9.08317 10.6603 8.75517 11.3283 8.62228C11.9964 8.48941 12.6888 8.5576 13.3181 8.81826C13.9474 9.07892 14.4853 9.52033 14.8637 10.0867C15.2421 10.653 15.4441 11.3189 15.4441 12C15.4441 12.9134 15.0813 13.7893 14.4354 14.4352C13.7895 15.081 12.9136 15.4439 12.0002 15.4439Z" stroke="black" stroke-width="1.71429"/>
</svg>
