<svg width="24" height="24" viewBox="0 0 24 24" fill="none" xmlns="http://www.w3.org/2000/svg">
<g clip-path="url(#clip0_165_965)">
<path d="M15.6353 8.63389C14.2313 7.22991 14.1549 5.72692 17.0391 2.84267C17.1528 2.72901 17.1306 2.53794 16.99 2.46003C14.3978 1.02324 11.8678 1.35498 9.73469 3.48807C7.73251 5.49027 7.31738 7.84216 8.46214 10.267C8.50431 10.3563 8.48115 10.4633 8.40742 10.5291C7.40556 11.4229 6.38198 12.3497 5.38661 13.345C4.39124 14.3404 3.46452 15.364 2.57069 16.3658C1.50569 17.5596 1.277 19.4182 2.27511 20.6685C2.43139 20.8642 2.59718 21.0535 2.77596 21.2321C2.95472 21.4109 3.14388 21.5767 3.33962 21.733C4.58984 22.7311 6.44854 22.5024 7.64228 21.4375C8.64415 20.5437 9.66773 19.6169 10.6631 18.6216C11.6585 17.6261 12.5852 16.6026 13.479 15.6007C13.5448 15.527 13.6518 15.5038 13.7412 15.546C16.166 16.6907 18.5179 16.2756 20.52 14.2734C22.5845 12.209 22.9616 9.77283 21.6814 7.26829C21.6322 7.17195 21.5031 7.1536 21.4265 7.23011C18.5422 10.1143 17.0393 10.0379 15.6353 8.63389Z" stroke="black" stroke-width="1.71429" stroke-linecap="round" stroke-linejoin="round"/>
</g>
<defs>
<clipPath id="clip0_165_965">
<rect width="24" height="24" fill="white"/>
</clipPath>
</defs>
</svg>
