<svg width="24" height="24" viewBox="0 0 24 24" fill="none" xmlns="http://www.w3.org/2000/svg">
<path d="M5.63752 15.6654C7.66187 15.6654 9.30294 14.0244 9.30294 12C9.30294 9.97566 7.66187 8.33459 5.63752 8.33459C3.61317 8.33459 1.97211 9.97566 1.97211 12C1.97211 14.0244 3.61317 15.6654 5.63752 15.6654Z" stroke="black" stroke-width="1.71429" stroke-linecap="round" stroke-linejoin="round"/>
<path d="M18.3624 8.61654C20.3868 8.61654 22.0279 6.97547 22.0279 4.95112C22.0279 2.92677 20.3868 1.28571 18.3624 1.28571C16.338 1.28571 14.697 2.92677 14.697 4.95112C14.697 6.97547 16.338 8.61654 18.3624 8.61654Z" stroke="black" stroke-width="1.71429" stroke-linecap="round" stroke-linejoin="round"/>
<path d="M18.3624 22.7143C20.3868 22.7143 22.0279 21.0732 22.0279 19.0488C22.0279 17.0245 20.3868 15.3835 18.3624 15.3835C16.338 15.3835 14.697 17.0245 14.697 19.0488C14.697 21.0732 16.338 22.7143 18.3624 22.7143Z" stroke="black" stroke-width="1.71429" stroke-linecap="round" stroke-linejoin="round"/>
<path d="M7.33765 8.7915C10.6847 6.90369 10.8878 6.8878 14.6969 5.81335" stroke="black" stroke-width="1.71429" stroke-linecap="round" stroke-linejoin="round"/>
<path d="M7.33765 15.2085C10.6847 17.0963 10.8878 17.1122 14.6969 18.1867" stroke="black" stroke-width="1.71429" stroke-linecap="round" stroke-linejoin="round"/>
</svg>
