<svg width="24" height="24" viewBox="0 0 24 24" fill="none" xmlns="http://www.w3.org/2000/svg">
<g clip-path="url(#clip0_1777_1010)">
<path d="M11.9999 22.2857C18.5828 22.2857 22.2857 18.5829 22.2857 12C22.2857 5.41715 18.5828 1.71429 11.9999 1.71429C5.41709 1.71429 1.71423 5.41715 1.71423 12C1.71423 18.5829 5.41709 22.2857 11.9999 22.2857Z" stroke="black" stroke-width="1.71429" stroke-linecap="round" stroke-linejoin="round"/>
<path d="M12 1.71429V22.2857" stroke="black" stroke-width="1.71429" stroke-linecap="round" stroke-linejoin="round"/>
<path d="M3.89392 4.96283C5.99526 6.47413 7.11426 8.8594 7.11426 12C7.11426 15.1406 5.99526 17.5258 3.89392 19.0371" stroke="black" stroke-width="1.71429" stroke-linecap="round" stroke-linejoin="round"/>
<path d="M20.1317 4.96283C18.0305 6.47413 16.9114 8.8594 16.9114 12C16.9114 15.1406 18.0305 17.5258 20.1317 19.0371" stroke="black" stroke-width="1.71429" stroke-linecap="round" stroke-linejoin="round"/>
</g>
<defs>
<clipPath id="clip0_1777_1010">
<rect width="24" height="24" fill="white"/>
</clipPath>
</defs>
</svg>
