<svg width="24" height="24" viewBox="0 0 24 24" fill="none" xmlns="http://www.w3.org/2000/svg">
<g clip-path="url(#clip0_1750_1151)">
<path d="M12 5.57143C9.33822 5.57143 6.55455 5.57143 4.23159 6.00801C3.17097 6.20733 2.34335 7.02545 2.11245 8.07963C1.71429 9.89748 1.71429 11.5696 1.71429 14.1429C1.71429 16.7161 1.71429 18.3883 2.11245 20.2061C2.34335 21.2602 3.17097 22.0785 4.23159 22.2777C6.55455 22.7143 9.33822 22.7143 12 22.7143C14.6618 22.7143 17.4454 22.7143 19.7685 22.2777C20.8291 22.0785 21.6566 21.2602 21.8875 20.2061C22.2857 18.3883 22.2857 16.7161 22.2857 14.1429C22.2857 11.5696 22.2857 9.89748 21.8875 8.07963C21.6566 7.02545 20.8291 6.20733 19.7685 6.00801C17.4454 5.57143 14.6618 5.57143 12 5.57143Z" stroke="black" stroke-width="1.71429"/>
<path d="M7.71429 5.64509V4.71429C7.71429 2.82074 9.24932 1.28571 11.1429 1.28571H12.8572C14.7507 1.28571 16.2857 2.82074 16.2857 4.71429V5.64509" stroke="black" stroke-width="1.71429"/>
</g>
<defs>
<clipPath id="clip0_1750_1151">
<rect width="24" height="24" fill="white"/>
</clipPath>
</defs>
</svg>
