<svg width="24" height="24" viewBox="0 0 24 24" fill="none" xmlns="http://www.w3.org/2000/svg">
<g clip-path="url(#clip0_1926_904)">
<path d="M22.267 12.0091C22.267 18.5859 18.5674 22.2854 11.9906 22.2854C5.41371 22.2854 1.71423 18.5859 1.71423 12.0091C1.71423 5.43219 5.41371 1.7327 11.9906 1.7327" stroke="black" stroke-width="1.71429" stroke-linecap="round" stroke-linejoin="round"/>
<path d="M10.3463 6.83621C7.96042 7.3777 6.64685 9.18208 6.64685 12.0081C6.64685 15.4281 8.57059 17.3518 11.9906 17.3518C14.9553 17.3518 16.7956 15.9061 17.233 13.2932" stroke="black" stroke-width="1.71429" stroke-linecap="round" stroke-linejoin="round"/>
<path d="M11.9906 12.0085L15.552 8.44713" stroke="black" stroke-width="1.71429" stroke-linecap="round" stroke-linejoin="round"/>
<path d="M15.5505 8.4499L15.3372 7.75809C14.9627 6.54379 15.2905 5.22195 16.1891 4.32338L18.7976 1.7147L19.6198 4.38051L22.2855 5.20262L19.677 7.81125C18.7784 8.70984 17.4565 9.03771 16.2422 8.66323L15.5505 8.4499Z" stroke="black" stroke-width="1.71429" stroke-linecap="round" stroke-linejoin="round"/>
</g>
<defs>
<clipPath id="clip0_1926_904">
<rect width="24" height="24" fill="white"/>
</clipPath>
</defs>
</svg>
