<svg width="24" height="24" viewBox="0 0 24 24" fill="none" xmlns="http://www.w3.org/2000/svg">
<path d="M1.72607 17.073C1.95275 18.7073 3.29413 19.9843 4.93707 20.1367C7.21643 20.3481 9.57892 20.5714 12 20.5714C14.4211 20.5714 16.7836 20.3481 19.0628 20.1367C20.7058 19.9843 22.0472 18.7073 22.2739 17.073C22.5019 15.4291 22.7143 13.7334 22.7143 12C22.7143 10.2666 22.5019 8.57092 22.2739 6.92702C22.0472 5.29269 20.7058 4.01566 19.0628 3.86333C16.7836 3.652 14.4211 3.42857 12 3.42857C9.57892 3.42857 7.21643 3.652 4.93707 3.86333C3.29413 4.01566 1.95275 5.29269 1.72607 6.92702C1.49806 8.57092 1.28571 10.2666 1.28571 12C1.28571 13.7334 1.49806 15.4291 1.72607 17.073Z" stroke="black" stroke-width="1.71429" stroke-linejoin="round"/>
<path d="M7.71431 14.5714C9.13448 14.5714 10.2857 13.4202 10.2857 12C10.2857 10.5798 9.13448 9.42857 7.71431 9.42857C6.29415 9.42857 5.14288 10.5798 5.14288 12C5.14288 13.4202 6.29415 14.5714 7.71431 14.5714Z" stroke="black" stroke-width="1.71429" stroke-linecap="round" stroke-linejoin="round"/>
<path d="M14.5714 9.42857H18" stroke="black" stroke-width="1.71429" stroke-linecap="round" stroke-linejoin="round"/>
<path d="M14.5714 14.5714H18" stroke="black" stroke-width="1.71429" stroke-linecap="round" stroke-linejoin="round"/>
</svg>
