<svg width="24" height="24" viewBox="0 0 24 24" fill="none" xmlns="http://www.w3.org/2000/svg">
<path d="M1.9527 15.5724C2.24061 18.0327 4.28684 19.9714 6.75383 20.1956C8.46225 20.351 10.2145 20.4814 12 20.4814C13.7855 20.4814 15.5378 20.351 17.2462 20.1956C19.7133 19.9714 21.7594 18.0327 22.0473 15.5724C22.1841 14.4034 22.2857 13.211 22.2857 12C22.2857 10.789 22.1841 9.59655 22.0473 8.42763C21.7594 5.96723 19.7133 4.02848 17.2462 3.80425C15.5378 3.64897 13.7855 3.51849 12 3.51849C10.2145 3.51849 8.46225 3.64897 6.75383 3.80425C4.28684 4.02848 2.24061 5.96723 1.9527 8.42763C1.81592 9.59655 1.71429 10.789 1.71429 12C1.71429 13.211 1.81592 14.4034 1.9527 15.5724Z" stroke="black" stroke-width="1.71429"/>
<path d="M11.6287 15.8741C13.7271 14.75 16.4485 13.0834 16.4485 12C16.4485 10.9167 13.7271 9.25002 11.6287 8.12591C10.5273 7.53589 9.2406 8.35235 9.2406 9.60185V14.3982C9.2406 15.6477 10.5273 16.4642 11.6287 15.8741Z" stroke="black" stroke-width="1.71429"/>
</svg>
