<svg width="24" height="24" viewBox="0 0 24 24" fill="none" xmlns="http://www.w3.org/2000/svg">
<g clip-path="url(#clip0_165_982)">
<path d="M1.91659 17.3333C2.17865 19.8031 4.16681 21.7915 6.63554 22.0646C8.38203 22.2578 10.1739 22.4211 12.0001 22.4211C13.8263 22.4211 15.6182 22.2578 17.3647 22.0646C19.8334 21.7915 21.8217 19.8033 22.0836 17.3333C22.2679 15.5968 22.4211 13.8155 22.4211 12.0001C22.4211 10.1848 22.2679 8.40338 22.0836 6.66698C21.8217 4.19707 19.8334 2.20872 17.3647 1.93565C15.6182 1.74247 13.8263 1.5791 12.0001 1.5791C10.1739 1.5791 8.38203 1.74247 6.63554 1.93565C4.16681 2.20872 2.17865 4.19707 1.91659 6.66698C1.73235 8.40338 1.5791 10.1848 1.5791 12.0001C1.5791 13.8155 1.73235 15.5968 1.91659 17.3333Z" stroke="black" stroke-width="1.71429"/>
<path d="M12 15.7412C14.0662 15.7412 15.7412 14.0662 15.7412 12C15.7412 9.93378 14.0662 8.25879 12 8.25879C9.93378 8.25879 8.25879 9.93378 8.25879 12C8.25879 14.0662 9.93378 15.7412 12 15.7412Z" stroke="black" stroke-width="1.71429" stroke-linecap="round" stroke-linejoin="round"/>
<path d="M17.6861 6.22748V6.97808" stroke="black" stroke-width="1.71429" stroke-linecap="round"/>
</g>
<defs>
<clipPath id="clip0_165_982">
<rect width="24" height="24" fill="white"/>
</clipPath>
</defs>
</svg>
