<svg width="24" height="24" viewBox="0 0 24 24" fill="none" xmlns="http://www.w3.org/2000/svg">
<path d="M4.36116 6.69944C5.73777 6.69944 6.85373 5.58347 6.85373 4.20687C6.85373 2.83026 5.73777 1.71429 4.36116 1.71429C2.98455 1.71429 1.86859 2.83026 1.86859 4.20687C1.86859 5.58347 2.98455 6.69944 4.36116 6.69944Z" stroke="black" stroke-width="1.71429" stroke-linejoin="round"/>
<path d="M4.15595 9.86597C5.4195 9.86597 6.44381 10.8903 6.44381 12.1538V19.9978C6.44381 21.2614 5.4195 22.2857 4.15595 22.2857C2.89241 22.2857 1.8681 21.2614 1.8681 19.9978V12.1538C1.8681 10.8903 2.89241 9.86597 4.15595 9.86597Z" stroke="black" stroke-width="1.71429" stroke-linecap="round" stroke-linejoin="round"/>
<path d="M15.922 14.4417C15.0195 14.4417 14.2879 15.1733 14.2879 16.0758V19.9978C14.2879 21.2614 13.2635 22.2857 12 22.2857C10.7365 22.2857 9.71216 21.2614 9.71216 19.9978V16.0758C9.71216 12.6462 12.4924 9.86597 15.922 9.86597C19.3517 9.86597 22.132 12.6462 22.132 16.0758V19.9978C22.132 21.2614 21.1077 22.2857 19.8441 22.2857C18.5805 22.2857 17.5562 21.2614 17.5562 19.9978V16.0758C17.5562 15.1733 16.8246 14.4417 15.922 14.4417Z" stroke="black" stroke-width="1.71429" stroke-linecap="round" stroke-linejoin="round"/>
</svg>
