<svg width="24" height="24" viewBox="0 0 24 24" fill="none" xmlns="http://www.w3.org/2000/svg">
<path d="M7.08119 16.2594C5.95287 17.1408 4.65779 17.7874 3.27303 18.161C3.12049 18.216 2.98871 18.3165 2.89559 18.4485C2.80246 18.5806 2.7525 18.7382 2.7525 18.8995C2.7525 19.0608 2.80246 19.2183 2.89559 19.3505C2.98871 19.4827 3.12049 19.583 3.27303 19.6382C14.2077 24.1011 21.1603 17.2023 20.1017 9.54904L22.2857 6.62078L18.9161 5.85587C18.4795 4.22671 17.1392 3.27633 15.639 3.00412C14.1388 2.73192 12.1211 3.00414 10.9251 4.80623C10.1952 5.90594 9.96622 7.48694 10.6836 9.5489C10.6836 9.5489 7.95027 10.2405 3.30462 5.69886C3.19717 5.59334 3.06154 5.52066 2.91383 5.48944C2.76611 5.4582 2.61251 5.46972 2.47117 5.52264C2.32984 5.57556 2.20672 5.66764 2.1164 5.788C2.02607 5.90836 1.97231 6.05193 1.9615 6.20174C1.47028 8.20989 1.7161 10.3265 2.65472 12.1704C3.59332 14.0143 5.16303 15.4643 7.08119 16.2594Z" stroke="black" stroke-width="1.71429" stroke-linecap="round" stroke-linejoin="round"/>
</svg>
