<svg width="24" height="24" viewBox="0 0 24 24" fill="none" xmlns="http://www.w3.org/2000/svg">
<path d="M16.992 13.6898C15.668 12.6078 13.8724 12 12 12C10.1276 12 8.33195 12.6078 7.00797 13.6898C3.7625 16.342 5.49462 19.5814 6.45303 22.7143H17.5469C18.5054 19.5814 20.2375 16.342 16.992 13.6898Z" stroke="black" stroke-width="1.71429" stroke-linecap="round" stroke-linejoin="round"/>
<path d="M16.992 10.3102C15.668 11.3922 13.8724 12 12 12C10.1276 12 8.33195 11.3922 7.00797 10.3102C3.7625 7.65803 5.49462 4.41853 6.45303 1.28571H17.5469C18.5054 4.41853 20.2375 7.65803 16.992 10.3102Z" stroke="black" stroke-width="1.71429" stroke-linecap="round" stroke-linejoin="round"/>
<path d="M2.93384 1.28571H21.0656" stroke="black" stroke-width="1.71429" stroke-linecap="round" stroke-linejoin="round"/>
<path d="M2.93384 22.7143H21.0656" stroke="black" stroke-width="1.71429" stroke-linecap="round" stroke-linejoin="round"/>
</svg>
