<svg width="24" height="24" viewBox="0 0 24 24" fill="none" xmlns="http://www.w3.org/2000/svg">
<path d="M3.34698 21.8457C3.97801 21.7253 4.62474 21.4665 5.31457 21.2307C6.32785 20.8845 7.3409 20.4929 8.27884 20.2358C8.54622 20.1624 8.82801 20.1679 9.09642 20.2373L15.3121 21.8458C16.3609 22.091 17.4008 21.6279 18.5633 21.2307C19.2809 20.9854 19.9985 20.7175 20.6895 20.4905C20.9381 20.4089 21.1633 20.177 21.3521 19.908C21.8484 19.2002 22.0153 18.3173 22.1696 17.4667C22.8713 13.6013 22.8773 9.60807 22.1756 5.74265C22.0164 4.86533 21.8899 3.90994 21.2623 3.2766C21.0836 3.09648 20.8767 2.97485 20.6501 2.99583C19.8145 3.07318 18.9211 3.30379 18.2842 3.47938C17.5435 3.68362 16.6947 4.10071 15.8658 4.49753C15.5087 4.66853 15.1027 4.70486 14.7193 4.60563L8.68778 3.04478C7.63907 2.79967 6.02658 3.20614 5.0356 3.47938C4.41659 3.65007 3.7221 3.96939 3.02682 4.30133C2.77669 4.42075 2.56417 4.72815 2.4029 5.0407C2.12457 5.58021 2.01009 6.18453 1.90351 6.78216L1.81859 7.25844C1.12061 11.1723 1.12061 15.1789 1.81859 19.0927C1.98158 20.0067 2.08806 21.0319 2.78289 21.6477C2.95058 21.7963 3.14102 21.8849 3.34698 21.8457Z" stroke="black" stroke-width="1.71429" stroke-linejoin="round"/>
<path d="M15.4144 21.8429L8.94612 20.2246C8.82388 20.1939 8.69897 20.1775 8.57416 20.1766V3.26234C8.57416 3.19005 8.57851 3.11847 8.587 3.04797L14.8854 4.62385C15.0633 4.66837 15.2459 4.682 15.4257 4.66475V21.6409C15.4257 21.7088 15.4219 21.7764 15.4144 21.8429Z" stroke="black" stroke-width="1.71429" stroke-linejoin="round"/>
</svg>
