<svg width="24" height="24" viewBox="0 0 24 24" fill="none" xmlns="http://www.w3.org/2000/svg">
<g clip-path="url(#clip0_165_970)">
<path d="M11.9999 22.621C17.8658 22.621 22.621 17.8658 22.621 12C22.621 6.13417 17.8658 1.37895 11.9999 1.37895C6.13405 1.37895 1.37885 6.13417 1.37885 12C1.37885 17.8658 6.13405 22.621 11.9999 22.621Z" stroke="black" stroke-width="1.71429" stroke-linecap="round" stroke-linejoin="round"/>
<path d="M5.05528 16.085C5.81368 16.085 6.541 15.7838 7.07727 15.2475C7.61353 14.7112 7.9148 13.9839 7.9148 13.2255V10.7745C7.9148 10.0161 8.21607 9.28877 8.75233 8.75251C9.28859 8.21625 10.0159 7.91498 10.7743 7.91498C11.5327 7.91498 12.26 7.61371 12.7963 7.07745C13.3326 6.54118 13.6338 5.81386 13.6338 5.05546V1.50386C13.1012 1.42162 12.5555 1.37895 11.9999 1.37895C6.13405 1.37895 1.37885 6.13416 1.37885 12C1.37885 13.4476 1.66844 14.8275 2.19285 16.085H5.05528Z" stroke="black" stroke-width="1.71429" stroke-linecap="round" stroke-linejoin="round"/>
<path d="M22.6197 11.8361C21.802 11.4119 20.8949 11.1881 19.9737 11.183H16.4932C15.7349 11.183 15.0075 11.4843 14.4713 12.0205C13.935 12.5568 13.6337 13.2841 13.6337 14.0425C13.6337 14.8009 13.935 15.5282 14.4713 16.0645C15.0075 16.6008 15.7349 16.902 16.4932 16.902C17.035 16.902 17.5545 17.1172 17.9374 17.5003C18.3206 17.8832 18.5357 18.4028 18.5357 18.9446V20.3661H18.544C21.0106 18.4341 22.6012 15.4347 22.6207 12.0632V11.9368C22.6205 11.9032 22.6202 11.8696 22.6197 11.8361Z" stroke="black" stroke-width="1.71429" stroke-linecap="round" stroke-linejoin="round"/>
</g>
<defs>
<clipPath id="clip0_165_970">
<rect width="24" height="24" fill="white"/>
</clipPath>
</defs>
</svg>
