<svg width="24" height="24" viewBox="0 0 24 24" fill="none" xmlns="http://www.w3.org/2000/svg">
<path d="M3.23605 18.1819C3.51482 20.6412 5.59465 22.559 8.06829 22.6467C9.32308 22.6911 10.6115 22.7143 12.0002 22.7143C13.3888 22.7143 14.6772 22.6911 15.932 22.6467C18.4056 22.559 20.4856 20.6412 20.7643 18.1819C20.8615 17.3246 20.9287 16.4536 20.9287 15.5714C20.9287 14.6891 20.8615 13.8182 20.7643 12.9609C20.4856 10.5014 18.4056 8.58382 15.932 8.49603C14.6772 8.45151 13.3888 8.42851 12.0002 8.42851C10.6115 8.42851 9.32308 8.45151 8.06829 8.49603C5.59465 8.58382 3.51482 10.5014 3.23605 12.9609C3.13888 13.8182 3.07159 14.6891 3.07159 15.5714C3.07159 16.4536 3.13888 17.3246 3.23605 18.1819Z" stroke="black" stroke-width="1.71429"/>
<path d="M15.5354 2.75018C14.5977 1.8125 13.326 1.28571 11.9999 1.28571C10.6738 1.28571 9.40204 1.8125 8.46434 2.75018C7.52666 3.68786 6.99988 4.95963 6.99988 6.28572V8.42858" stroke="black" stroke-width="1.71429" stroke-linecap="round" stroke-linejoin="round"/>
<path d="M12 14.7142V16.4284" stroke="black" stroke-width="1.71429" stroke-linecap="round" stroke-linejoin="round"/>
</svg>
