<svg width="24" height="24" viewBox="0 0 24 24" fill="none" xmlns="http://www.w3.org/2000/svg">
<path d="M5.09863 8.75174C4.27576 8.84315 3.62203 9.49742 3.52828 10.32C3.12355 13.8709 3.12355 17.1854 3.52828 20.7362C3.62203 21.5587 4.27576 22.213 5.09863 22.3044C8.62661 22.6963 15.3734 22.6963 18.9014 22.3044C19.7242 22.213 20.3779 21.5587 20.4716 20.7362C20.8764 17.1854 20.8764 13.8709 20.4716 10.32C20.3779 9.49742 19.7242 8.84315 18.9014 8.75174" stroke="black" stroke-width="1.71429" stroke-linecap="round"/>
<path d="M12 14.169V1.40186" stroke="black" stroke-width="1.71429" stroke-linecap="round" stroke-linejoin="round"/>
<path d="M16.0371 4.86643C14.8105 3.31653 13.975 2.59526 12.7298 1.65195C12.2893 1.31817 11.7113 1.31817 11.2707 1.65195C10.0256 2.59526 9.19005 3.31653 7.96338 4.86643" stroke="black" stroke-width="1.71429" stroke-linecap="round" stroke-linejoin="round"/>
</svg>
