<svg width="24" height="24" viewBox="0 0 24 24" fill="none" xmlns="http://www.w3.org/2000/svg">
<path d="M16.1091 12.0151C18.3802 12.0151 20.2214 10.1739 20.2214 7.90271C20.2214 6.14581 19.1198 4.64624 17.5694 4.05719" stroke="black" stroke-width="1.71429" stroke-linecap="round" stroke-linejoin="round"/>
<path d="M9.18963 11.1998C11.6516 11.1998 13.6474 9.204 13.6474 6.74206C13.6474 4.28011 11.6516 2.2843 9.18963 2.2843C6.72768 2.2843 4.73187 4.28011 4.73187 6.74206C4.73187 9.204 6.72768 11.1998 9.18963 11.1998Z" stroke="black" stroke-width="1.71429" stroke-linecap="round" stroke-linejoin="round"/>
<path d="M16.0177 17.4627C18.1982 18.9151 16.7258 21.716 14.1059 21.716H4.26751C1.64762 21.716 0.175232 18.9151 2.35575 17.4627C4.31161 16.1601 6.66049 15.4009 9.1867 15.4009C11.7129 15.4009 14.0618 16.1601 16.0177 17.4627Z" stroke="black" stroke-width="1.71429"/>
<path d="M13.7268 21.7159H19.9627C22.3795 21.7159 23.7379 19.1319 21.7263 17.7921C21.1709 17.4221 20.581 17.0997 19.9627 16.8306" stroke="black" stroke-width="1.71429" stroke-linecap="round"/>
</svg>
