<svg width="24" height="24" viewBox="0 0 24 24" fill="none" xmlns="http://www.w3.org/2000/svg">
<g clip-path="url(#clip0_1750_1162)">
<path d="M8.96899 1.28571L9.54546 2.00635C10.891 3.68835 13.1086 3.68835 14.4541 2.00635L15.0306 1.28571" stroke="black" stroke-width="1.71429" stroke-linecap="round" stroke-linejoin="round"/>
<path d="M15.031 22.7143L14.4545 21.9936C13.109 20.3117 10.8913 20.3117 9.54582 21.9936L8.96936 22.7143" stroke="black" stroke-width="1.71429" stroke-linecap="round" stroke-linejoin="round"/>
<path d="M12 3.26786V9" stroke="black" stroke-width="1.71429" stroke-linecap="round" stroke-linejoin="round"/>
<path d="M12 15V20.7322" stroke="black" stroke-width="1.71429" stroke-linecap="round" stroke-linejoin="round"/>
<path d="M19.7637 4.01806L19.4278 4.87762C18.6439 6.88385 19.7527 8.80442 21.8822 9.12864L22.7945 9.26755" stroke="black" stroke-width="1.71429" stroke-linecap="round" stroke-linejoin="round"/>
<path d="M4.2363 19.9819L4.57216 19.1223C5.35607 17.1161 4.24723 15.1956 2.11782 14.8714L1.20551 14.7325" stroke="black" stroke-width="1.71429" stroke-linecap="round" stroke-linejoin="round"/>
<path d="M19.5624 7.63392L14.5981 10.5" stroke="black" stroke-width="1.71429" stroke-linecap="round" stroke-linejoin="round"/>
<path d="M9.40182 13.5L4.43762 16.3661" stroke="black" stroke-width="1.71429" stroke-linecap="round" stroke-linejoin="round"/>
<path d="M22.7942 14.7323L21.8818 14.8713C19.7525 15.1955 18.6437 17.116 19.4277 19.1223L19.7635 19.9819" stroke="black" stroke-width="1.71429" stroke-linecap="round" stroke-linejoin="round"/>
<path d="M1.20575 9.26765L2.11808 9.12874C4.24748 8.8045 5.35631 6.88395 4.5724 4.87771L4.23654 4.01817" stroke="black" stroke-width="1.71429" stroke-linecap="round" stroke-linejoin="round"/>
<path d="M19.5624 16.3661L14.5981 13.5" stroke="black" stroke-width="1.71429" stroke-linecap="round" stroke-linejoin="round"/>
<path d="M9.40182 10.5L4.43762 7.63392" stroke="black" stroke-width="1.71429" stroke-linecap="round" stroke-linejoin="round"/>
<path d="M12.0309 15C13.6877 15 15.0309 13.6569 15.0309 12C15.0309 10.3431 13.6877 9 12.0309 9C10.374 9 9.03088 10.3431 9.03088 12C9.03088 13.6569 10.374 15 12.0309 15Z" stroke="black" stroke-width="1.71429"/>
</g>
<defs>
<clipPath id="clip0_1750_1162">
<rect width="24" height="24" fill="white"/>
</clipPath>
</defs>
</svg>
